<svg width="419" height="88" viewBox="0 0 419 88" fill="none" xmlns="http://www.w3.org/2000/svg">
<rect width="419" height="88" rx="8" fill="white" fill-opacity="0.24"/>
<path d="M146.785 41.828C146.282 42.3364 145.896 42.95 145.656 43.6249C145.416 44.3 145.327 45.0199 145.396 45.7333L145.372 45.7093C145.442 46.5492 145.329 47.3943 145.041 48.1859C144.752 48.9773 144.295 49.6961 143.702 50.2921C143.108 50.888 142.392 51.3468 141.603 51.6361C140.814 51.9256 139.972 52.0389 139.135 51.968L139.159 51.992C138.158 51.8985 137.153 52.1171 136.28 52.618C135.408 53.1189 134.71 53.8777 134.283 54.7911C133.856 55.7044 133.72 56.7276 133.893 57.7215C134.067 58.7152 134.541 59.6311 135.253 60.3441C135.964 61.0572 136.877 61.5328 137.867 61.706C138.858 61.8793 139.877 61.7417 140.787 61.3123C141.696 60.8827 142.452 60.1821 142.95 59.3059C143.449 58.4296 143.665 57.4205 143.571 56.416L143.597 56.44C143.526 55.6003 143.639 54.7551 143.927 53.9635C144.216 53.172 144.673 52.4532 145.267 51.8572C145.86 51.2613 146.577 50.8025 147.365 50.5132C148.154 50.2237 148.996 50.1104 149.833 50.1813L149.808 50.1573C150.625 50.2311 151.448 50.0965 152.2 49.7661C152.952 49.4357 153.609 48.9201 154.11 48.2672C154.61 47.6143 154.939 46.8449 155.064 46.0308C155.19 45.2165 155.109 44.3837 154.828 43.6093C154.547 42.8351 154.077 42.1444 153.459 41.6013C152.842 41.0583 152.098 40.6804 151.296 40.5028C150.494 40.3252 149.661 40.3535 148.873 40.5851C148.085 40.8168 147.369 41.2443 146.789 41.828H146.785Z" fill="white" fill-opacity="0.8"/>
<path d="M136.984 48.8478L136.959 48.8238C137.67 48.8957 138.389 48.8081 139.062 48.5673C139.735 48.3265 140.347 47.9386 140.853 47.4316C141.358 46.9245 141.745 46.3109 141.986 45.6353C142.226 44.9597 142.314 44.239 142.243 43.5252L142.268 43.5492C142.197 42.7093 142.31 41.8642 142.599 41.0726C142.887 40.2812 143.344 39.5624 143.938 38.9664C144.532 38.3705 145.248 37.9117 146.037 37.6224C146.826 37.3328 147.668 37.2196 148.504 37.2905L148.479 37.2665C149.48 37.3609 150.486 37.143 151.359 36.6426C152.232 36.1423 152.93 35.3838 153.358 34.4706C153.786 33.5575 153.923 32.5341 153.75 31.5401C153.577 30.5461 153.102 29.6298 152.391 28.9163C151.68 28.2028 150.767 27.7268 149.777 27.5531C148.786 27.3795 147.767 27.5167 146.857 27.9461C145.947 28.3754 145.191 29.076 144.693 29.9523C144.194 30.8286 143.977 31.8379 144.071 32.8425L144.047 32.8172C144.118 33.657 144.005 34.5023 143.717 35.2939C143.429 36.0855 142.971 36.8044 142.378 37.4005C141.784 37.9964 141.067 38.4552 140.279 38.7445C139.49 39.0338 138.648 39.1469 137.811 39.0758L137.835 39.1012C137.123 39.0293 136.405 39.1169 135.732 39.3577C135.058 39.5984 134.447 39.9864 133.941 40.4934C133.436 41.0005 133.048 41.6141 132.808 42.2897C132.568 42.9653 132.48 43.686 132.551 44.3998L132.527 44.3758C132.597 45.2156 132.484 46.0606 132.196 46.8521C131.907 47.6434 131.45 48.3622 130.857 48.9581C130.263 49.554 129.547 50.0126 128.758 50.3022C127.969 50.5917 127.127 50.7052 126.291 50.6345L126.315 50.6585C125.314 50.5641 124.308 50.782 123.435 51.2824C122.562 51.7828 121.864 52.5412 121.436 53.4544C121.008 54.3676 120.871 55.3909 121.044 56.3849C121.217 57.3789 121.692 58.2952 122.402 59.0086C123.113 59.7222 124.026 60.1982 125.017 60.3718C126.007 60.5454 127.027 60.4082 127.937 59.9789C128.847 59.5496 129.603 58.849 130.101 57.9728C130.6 57.0964 130.817 56.0872 130.723 55.0825L130.748 55.1065C130.677 54.2666 130.79 53.4216 131.079 52.63C131.367 51.8385 131.824 51.1197 132.418 50.5237C133.012 49.9278 133.728 49.469 134.517 49.1797C135.305 48.8902 136.148 48.7769 136.984 48.8478Z" fill="white" fill-opacity="0.8"/>
<path d="M128.08 46.1721C128.584 45.6638 128.969 45.0502 129.209 44.3751C129.449 43.7001 129.538 42.9801 129.469 42.2667L129.494 42.2907C129.423 41.4507 129.536 40.6053 129.825 39.8135C130.113 39.0218 130.571 38.3029 131.165 37.7069C131.759 37.1109 132.475 36.6523 133.264 36.363C134.053 36.0737 134.896 35.9608 135.733 36.0321L135.708 36.0081C136.708 36.1022 137.714 35.8842 138.586 35.3839C139.459 34.8836 140.157 34.1253 140.584 33.2124C141.012 32.2995 141.149 31.2765 140.976 30.2829C140.803 29.2892 140.328 28.3733 139.618 27.6601C138.907 26.9468 137.994 26.4709 137.004 26.2973C136.014 26.1237 134.995 26.2608 134.085 26.6899C133.176 27.1189 132.42 27.8192 131.921 28.695C131.423 29.5709 131.206 30.5798 131.299 31.5841L131.276 31.5601C131.346 32.3999 131.233 33.245 130.945 34.0366C130.656 34.8281 130.199 35.5469 129.606 36.1428C129.012 36.7388 128.296 37.1975 127.507 37.4869C126.718 37.7763 125.876 37.8897 125.039 37.8187L125.063 37.8427C124.245 37.7691 123.423 37.9039 122.671 38.2345C121.919 38.565 121.262 39.0807 120.762 39.7338C120.261 40.3867 119.933 41.1561 119.808 41.9702C119.682 42.7845 119.764 43.6173 120.044 44.3914C120.325 45.1657 120.796 45.8562 121.413 46.3991C122.031 46.9422 122.775 47.3199 123.576 47.4975C124.378 47.675 125.211 47.6466 125.999 47.415C126.787 47.1833 127.504 46.7558 128.083 46.1721H128.08Z" fill="white" fill-opacity="0.8"/>
<path d="M169.235 32.8735H173.181V52.1442H169.235V32.8735Z" fill="white" fill-opacity="0.8"/>
<path d="M175.416 45.5455C175.411 44.1607 175.815 42.8052 176.577 41.6511C177.34 40.4969 178.427 39.5959 179.7 39.0621C180.973 38.5283 182.376 38.3857 183.73 38.6525C185.084 38.9193 186.329 39.5833 187.306 40.5607C188.284 41.5379 188.951 42.7844 189.222 44.1423C189.493 45.5001 189.357 46.9083 188.83 48.1883C188.303 49.4681 187.41 50.5625 186.263 51.3324C185.116 52.1024 183.767 52.5135 182.387 52.5135C181.471 52.524 180.562 52.3511 179.713 52.0049C178.865 51.6588 178.093 51.1464 177.444 50.4977C176.795 49.8489 176.282 49.0768 175.933 48.2265C175.585 47.3763 175.409 46.4648 175.416 45.5455ZM185.412 45.5455C185.396 44.9485 185.204 44.3697 184.862 43.8813C184.519 43.3931 184.041 43.0168 183.487 42.7999C182.932 42.5828 182.327 42.5345 181.745 42.6612C181.164 42.7879 180.632 43.0836 180.217 43.5117C179.803 43.9397 179.522 44.4811 179.413 45.068C179.303 45.6548 179.367 46.2612 179.599 46.8113C179.83 47.3615 180.218 47.8308 180.714 48.1608C181.21 48.4908 181.792 48.6668 182.387 48.6668C182.794 48.6777 183.2 48.6037 183.578 48.4496C183.955 48.2955 184.297 48.0645 184.581 47.7713C184.865 47.478 185.086 47.1288 185.229 46.7457C185.372 46.3627 185.434 45.954 185.412 45.5455Z" fill="white" fill-opacity="0.8"/>
<path d="M205.084 38.9452V51.4786C205.084 55.9132 201.638 57.7879 198.14 57.7879C196.908 57.8804 195.675 57.6307 194.575 57.0663C193.476 56.5018 192.552 55.6443 191.906 54.5879L195.273 52.6346C195.544 53.1852 195.977 53.6395 196.513 53.9367C197.049 54.2338 197.662 54.3596 198.271 54.2972C198.661 54.3514 199.057 54.317 199.431 54.1966C199.806 54.0762 200.148 53.8728 200.433 53.6018C200.719 53.3306 200.94 52.9986 201.08 52.63C201.22 52.2616 201.276 51.8663 201.243 51.4732V50.2666C200.781 50.8339 200.193 51.2847 199.526 51.5827C198.859 51.8807 198.132 52.0176 197.403 51.9826C195.667 51.9276 194.021 51.1972 192.813 49.9458C191.605 48.6944 190.929 47.0203 190.929 45.2779C190.929 43.5355 191.605 41.8614 192.813 40.61C194.021 39.3586 195.667 38.6282 197.403 38.5732C198.132 38.5382 198.859 38.6751 199.526 38.9731C200.193 39.2711 200.781 39.7219 201.243 40.2892V38.9426L205.084 38.9452ZM201.245 45.2799C201.271 44.6418 201.107 44.0102 200.773 43.4666C200.439 42.9228 199.95 42.492 199.37 42.2295C198.79 41.9668 198.144 41.8846 197.517 41.9931C196.89 42.1016 196.31 42.396 195.85 42.8386C195.391 43.281 195.075 43.8511 194.941 44.4756C194.808 45.1002 194.864 45.7506 195.102 46.343C195.34 46.9354 195.749 47.4428 196.277 47.7999C196.804 48.157 197.426 48.3474 198.063 48.3466C198.477 48.3756 198.893 48.3172 199.284 48.1751C199.675 48.033 200.032 47.8102 200.331 47.5214C200.631 47.2324 200.867 46.8838 201.025 46.4976C201.182 46.1116 201.257 45.6968 201.245 45.2799Z" fill="white" fill-opacity="0.8"/>
<path d="M207.319 45.5455C207.313 44.1607 207.717 42.8052 208.48 41.6511C209.243 40.4969 210.33 39.5959 211.603 39.0621C212.876 38.5283 214.279 38.3857 215.633 38.6525C216.987 38.9193 218.232 39.5833 219.209 40.5607C220.187 41.5379 220.854 42.7844 221.125 44.1423C221.396 45.5001 221.26 46.9083 220.733 48.1883C220.206 49.4681 219.313 50.5625 218.166 51.3324C217.019 52.1024 215.67 52.5135 214.29 52.5135C213.374 52.524 212.465 52.3511 211.616 52.0049C210.768 51.6588 209.996 51.1464 209.347 50.4977C208.698 49.8489 208.185 49.0768 207.836 48.2265C207.488 47.3763 207.312 46.4648 207.319 45.5455ZM217.315 45.5455C217.299 44.9485 217.107 44.3697 216.765 43.8813C216.422 43.3931 215.944 43.0168 215.39 42.7999C214.835 42.5828 214.229 42.5345 213.648 42.6612C213.067 42.7879 212.535 43.0836 212.12 43.5117C211.705 43.9397 211.425 44.4811 211.315 45.068C211.205 45.6548 211.27 46.2612 211.502 46.8113C211.733 47.3615 212.121 47.8308 212.617 48.1608C213.113 48.4908 213.695 48.6668 214.29 48.6668C214.697 48.6777 215.103 48.6037 215.48 48.4496C215.858 48.2955 216.2 48.0645 216.484 47.7713C216.768 47.478 216.989 47.1288 217.132 46.7457C217.275 46.3627 217.337 45.954 217.315 45.5455Z" fill="white" fill-opacity="0.8"/>
<path d="M223.101 35.4082C223.101 34.9383 223.24 34.4789 223.5 34.0882C223.76 33.6975 224.13 33.3929 224.563 33.2131C224.995 33.0333 225.471 32.9862 225.931 33.0779C226.39 33.1696 226.812 33.3959 227.143 33.7281C227.474 34.0604 227.699 34.4838 227.791 34.9447C227.882 35.4056 227.835 35.8833 227.656 36.3175C227.477 36.7516 227.173 37.1227 226.784 37.3838C226.395 37.6449 225.937 37.7842 225.469 37.7842C224.843 37.778 224.244 37.5257 223.801 37.0814C223.359 36.6372 223.107 36.0364 223.101 35.4082ZM223.5 38.9456H227.447V52.1456H223.494L223.5 38.9456Z" fill="white" fill-opacity="0.8"/>
<path d="M244.484 45.5455C244.53 46.4179 244.403 47.2907 244.112 48.1138C243.82 48.9369 243.369 49.6939 242.785 50.3415C242.201 50.989 241.494 51.5143 240.707 51.8871C239.92 52.2598 239.067 52.4727 238.198 52.5135C237.466 52.5535 236.735 52.4298 236.058 52.1513C235.38 51.8726 234.773 51.4462 234.28 50.9029V57.4242H230.334V38.9455H234.28V40.1855C234.773 39.6426 235.38 39.2165 236.058 38.9382C236.736 38.6598 237.466 38.5362 238.198 38.5762C239.067 38.6169 239.92 38.8297 240.708 39.2025C241.495 39.5753 242.201 40.1006 242.786 40.7483C243.37 41.3961 243.821 42.1534 244.112 42.9767C244.404 43.7999 244.53 44.673 244.484 45.5455ZM240.538 45.5455C240.523 44.9278 240.326 44.3283 239.973 43.8221C239.62 43.3159 239.126 42.9255 238.553 42.6999C237.979 42.4742 237.353 42.4231 236.751 42.5533C236.149 42.6833 235.598 42.9886 235.168 43.431C234.738 43.8735 234.448 44.4333 234.334 45.0406C234.219 45.6478 234.286 46.2753 234.525 46.8447C234.764 47.4142 235.166 47.9001 235.679 48.2418C236.192 48.5834 236.794 48.7657 237.41 48.7655C237.832 48.7845 238.254 48.7134 238.648 48.5571C239.041 48.401 239.398 48.163 239.693 47.859C239.988 47.5549 240.216 47.1917 240.362 46.793C240.508 46.3943 240.568 45.9691 240.538 45.5455Z" fill="white" fill-opacity="0.8"/>
<path d="M256.661 48.1841C256.661 51.2201 254.031 52.5135 251.191 52.5135C250.043 52.6177 248.891 52.3743 247.883 51.8141C246.874 51.2541 246.057 50.4035 245.535 49.3721L248.954 47.4188C249.092 47.8955 249.389 48.3103 249.795 48.5936C250.201 48.8771 250.693 49.0121 251.186 48.9761C252.132 48.9761 252.606 48.6855 252.606 48.1588C252.606 46.7055 246.134 47.4721 246.134 42.9055C246.134 40.0268 248.555 38.5761 251.291 38.5761C252.319 38.5435 253.337 38.7883 254.239 39.2849C255.141 39.7817 255.894 40.5121 256.419 41.4001L253.052 43.2215C252.905 42.8757 252.659 42.5812 252.346 42.3747C252.032 42.1681 251.665 42.0588 251.291 42.0601C250.606 42.0601 250.185 42.3268 250.185 42.7988C250.191 44.3041 256.661 43.3001 256.661 48.1841Z" fill="white" fill-opacity="0.8"/>
<path d="M271.074 38.9453V52.1453H267.129V50.904C266.673 51.4517 266.095 51.8833 265.441 52.1633C264.788 52.4433 264.078 52.5637 263.369 52.5146C260.712 52.5146 258.453 50.6146 258.453 47.048V38.9453H262.399V46.468C262.366 46.7824 262.402 47.1002 262.504 47.3993C262.605 47.6985 262.771 47.9718 262.989 48.2002C263.207 48.4286 263.471 48.6066 263.765 48.722C264.057 48.8373 264.372 48.8872 264.687 48.868C266.133 48.868 267.133 48.024 267.133 46.1493V38.9493L271.074 38.9453Z" fill="white" fill-opacity="0.8"/>
<path d="M293.7 44.04V52.144H289.754V44.3826C289.754 43.0626 289.123 42.2186 287.861 42.2186C286.546 42.2186 285.808 43.1426 285.808 44.7V52.144H281.864V44.3826C281.864 43.0626 281.233 42.2186 279.969 42.2186C278.654 42.2186 277.918 43.1426 277.918 44.7V52.144H273.972V38.944H277.918V40.1573C278.327 39.619 278.864 39.1921 279.479 38.9157C280.095 38.6392 280.77 38.522 281.443 38.5746C282.118 38.5414 282.79 38.6845 283.394 38.9897C283.997 39.2948 284.512 39.7518 284.888 40.316C285.325 39.7257 285.904 39.2564 286.571 38.9518C287.238 38.6473 287.971 38.5176 288.702 38.5746C291.722 38.576 293.7 40.74 293.7 44.04Z" fill="white" fill-opacity="0.8"/>
<path d="M297.037 38.8641C298.654 38.8641 299.965 37.5484 299.965 35.9255C299.965 34.3025 298.654 32.9868 297.037 32.9868C295.42 32.9868 294.109 34.3025 294.109 35.9255C294.109 37.5484 295.42 38.8641 297.037 38.8641Z" fill="white" fill-opacity="0.8"/>
</svg>
