<svg width="120" height="24" viewBox="0 0 120 24" fill="none" xmlns="http://www.w3.org/2000/svg">
<path d="M11.1033 4.81663C11.4701 4.07346 12.5299 4.07346 12.8967 4.81663L14.5486 8.16309C14.6941 8.45794 14.9753 8.6624 15.3006 8.70995L18.9962 9.25012C19.8161 9.36996 20.1429 10.3778 19.5493 10.956L16.8768 13.559C16.6409 13.7887 16.5333 14.1199 16.5889 14.4444L17.2194 18.1206C17.3595 18.9376 16.502 19.5606 15.7684 19.1747L12.4655 17.4378C12.1741 17.2845 11.8259 17.2845 11.5345 17.4378L8.23163 19.1747C7.498 19.5606 6.64045 18.9376 6.78057 18.1206L7.41109 14.4444C7.46675 14.1199 7.35908 13.7887 7.12321 13.559L4.45068 10.956C3.85709 10.3778 4.18387 9.36996 5.00378 9.25012L8.69937 8.70995C9.02472 8.6624 9.30591 8.45794 9.45145 8.16309L11.1033 4.81663Z" fill="#BEF264"/>
<path d="M35.1033 4.81663C35.4701 4.07346 36.5299 4.07346 36.8967 4.81663L38.5486 8.16309C38.6941 8.45794 38.9753 8.6624 39.3006 8.70995L42.9962 9.25012C43.8161 9.36996 44.1429 10.3778 43.5493 10.956L40.8768 13.559C40.6409 13.7887 40.5333 14.1199 40.5889 14.4444L41.2194 18.1206C41.3595 18.9376 40.502 19.5606 39.7684 19.1747L36.4655 17.4378C36.1741 17.2845 35.8259 17.2845 35.5345 17.4378L32.2316 19.1747C31.498 19.5606 30.6405 18.9376 30.7806 18.1206L31.4111 14.4444C31.4667 14.1199 31.3591 13.7887 31.1232 13.559L28.4507 10.956C27.8571 10.3778 28.1839 9.36996 29.0038 9.25012L32.6994 8.70995C33.0247 8.6624 33.3059 8.45794 33.4514 8.16309L35.1033 4.81663Z" fill="#BEF264"/>
<path d="M59.1033 4.81663C59.4701 4.07346 60.5299 4.07346 60.8967 4.81663L62.5486 8.16309C62.6941 8.45794 62.9753 8.6624 63.3006 8.70995L66.9962 9.25012C67.8161 9.36996 68.1429 10.3778 67.5493 10.956L64.8768 13.559C64.6409 13.7887 64.5333 14.1199 64.5889 14.4444L65.2194 18.1206C65.3595 18.9376 64.502 19.5606 63.7684 19.1747L60.4655 17.4378C60.1741 17.2845 59.8259 17.2845 59.5345 17.4378L56.2316 19.1747C55.498 19.5606 54.6405 18.9376 54.7806 18.1206L55.4111 14.4444C55.4667 14.1199 55.3591 13.7887 55.1232 13.559L52.4507 10.956C51.8571 10.3778 52.1839 9.36996 53.0038 9.25012L56.6994 8.70995C57.0247 8.6624 57.3059 8.45794 57.4514 8.16309L59.1033 4.81663Z" fill="#BEF264"/>
<path d="M83.1033 4.81663C83.4701 4.07346 84.5299 4.07346 84.8967 4.81663L86.5486 8.16309C86.6941 8.45794 86.9753 8.6624 87.3006 8.70995L90.9962 9.25012C91.8161 9.36996 92.1429 10.3778 91.5493 10.956L88.8768 13.559C88.6409 13.7887 88.5333 14.1199 88.5889 14.4444L89.2194 18.1206C89.3595 18.9376 88.502 19.5606 87.7684 19.1747L84.4655 17.4378C84.1741 17.2845 83.8259 17.2845 83.5345 17.4378L80.2316 19.1747C79.498 19.5606 78.6405 18.9376 78.7806 18.1206L79.4111 14.4444C79.4667 14.1199 79.3591 13.7887 79.1232 13.559L76.4507 10.956C75.8571 10.3778 76.1839 9.36996 77.0038 9.25012L80.6994 8.70995C81.0247 8.6624 81.3059 8.45794 81.4514 8.16309L83.1033 4.81663Z" fill="#BEF264"/>
<path d="M107.103 4.81663C107.47 4.07346 108.53 4.07346 108.897 4.81663L110.549 8.16309C110.694 8.45794 110.975 8.6624 111.301 8.70995L114.996 9.25012C115.816 9.36996 116.143 10.3778 115.549 10.956L112.877 13.559C112.641 13.7887 112.533 14.1199 112.589 14.4444L113.219 18.1206C113.36 18.9376 112.502 19.5606 111.768 19.1747L108.465 17.4378C108.174 17.2845 107.826 17.2845 107.535 17.4378L104.232 19.1747C103.498 19.5606 102.64 18.9376 102.781 18.1206L103.411 14.4444C103.467 14.1199 103.359 13.7887 103.123 13.559L100.451 10.956C99.8571 10.3778 100.184 9.36996 101.004 9.25012L104.699 8.70995C105.025 8.6624 105.306 8.45794 105.451 8.16309L107.103 4.81663Z" fill="#BEF264"/>
</svg>
