<svg width="1216" height="36" viewBox="0 0 1216 36" fill="none" xmlns="http://www.w3.org/2000/svg">
<mask id="path-1-inside-1_1_2624" fill="white">
<path d="M0 0H1216V36H0V0Z"/>
</mask>
<path d="M1216 35H0V37H1216V35Z" fill="#D9DEDD" mask="url(#path-1-inside-1_1_2624)"/>
<circle cx="4" cy="10" r="4" fill="#BEF264"/>
<path d="M20.41 15.168C19.8873 15.168 19.4113 15.1073 18.982 14.986C18.562 14.8647 18.1933 14.7013 17.876 14.496C17.568 14.2813 17.3113 14.0433 17.106 13.782C16.9007 13.5207 16.756 13.2453 16.672 12.956L18.002 12.522C18.142 12.9047 18.408 13.236 18.8 13.516C19.192 13.796 19.6727 13.9407 20.242 13.95C20.9327 13.95 21.474 13.8147 21.866 13.544C22.2673 13.264 22.468 12.8953 22.468 12.438C22.468 12.018 22.2953 11.6773 21.95 11.416C21.6047 11.1453 21.1473 10.94 20.578 10.8L19.444 10.506C18.996 10.3847 18.5853 10.212 18.212 9.988C17.848 9.764 17.5587 9.47933 17.344 9.134C17.1293 8.78867 17.022 8.37333 17.022 7.888C17.022 6.992 17.3113 6.292 17.89 5.788C18.478 5.284 19.3227 5.032 20.424 5.032C21.0587 5.032 21.6093 5.13467 22.076 5.34C22.5427 5.536 22.9253 5.79733 23.224 6.124C23.532 6.45067 23.7513 6.81 23.882 7.202L22.552 7.65C22.3933 7.23 22.1227 6.894 21.74 6.642C21.3573 6.38067 20.886 6.25 20.326 6.25C19.738 6.25 19.2713 6.39 18.926 6.67C18.59 6.95 18.422 7.33267 18.422 7.818C18.422 8.22867 18.5527 8.546 18.814 8.77C19.0847 8.98467 19.444 9.148 19.892 9.26L21.026 9.54C21.9407 9.764 22.6453 10.1373 23.14 10.66C23.644 11.1733 23.896 11.738 23.896 12.354C23.896 12.886 23.7607 13.3667 23.49 13.796C23.2287 14.216 22.8367 14.552 22.314 14.804C21.8007 15.0467 21.166 15.168 20.41 15.168ZM28.6043 15.168C27.9043 15.168 27.2883 15.014 26.7563 14.706C26.2243 14.3887 25.8043 13.9547 25.4963 13.404C25.1976 12.8533 25.0483 12.2187 25.0483 11.5C25.0483 10.7813 25.1976 10.1467 25.4963 9.596C25.7949 9.04533 26.2103 8.616 26.7423 8.308C27.2743 7.99067 27.8856 7.832 28.5763 7.832C29.2669 7.832 29.8783 7.99067 30.4103 8.308C30.9423 8.616 31.3576 9.04533 31.6563 9.596C31.9549 10.1467 32.1043 10.7813 32.1043 11.5C32.1043 12.2187 31.9549 12.8533 31.6563 13.404C31.3576 13.9547 30.9423 14.3887 30.4103 14.706C29.8876 15.014 29.2856 15.168 28.6043 15.168ZM28.6043 13.95C29.0243 13.95 29.3976 13.8473 29.7243 13.642C30.0509 13.4273 30.3029 13.138 30.4803 12.774C30.6669 12.41 30.7603 11.9853 30.7603 11.5C30.7603 11.0147 30.6669 10.59 30.4803 10.226C30.3029 9.862 30.0463 9.57733 29.7103 9.372C29.3743 9.15733 28.9963 9.05 28.5763 9.05C28.1469 9.05 27.7689 9.15733 27.4423 9.372C27.1156 9.57733 26.8589 9.862 26.6723 10.226C26.4856 10.59 26.3923 11.0147 26.3923 11.5C26.3923 11.9853 26.4856 12.41 26.6723 12.774C26.8589 13.138 27.1203 13.4273 27.4563 13.642C27.7923 13.8473 28.1749 13.95 28.6043 13.95ZM33.5054 15V5.2H34.8354V15H33.5054ZM41.3812 15L41.2972 13.712V8H42.6132V15H41.3812ZM36.4532 12.004V8H37.7832V11.584L36.4532 12.004ZM37.7832 11.584C37.7832 12.2093 37.8532 12.69 37.9932 13.026C38.1426 13.362 38.3479 13.5953 38.6092 13.726C38.8706 13.8567 39.1646 13.9267 39.4912 13.936C40.0606 13.936 40.5039 13.7353 40.8212 13.334C41.1386 12.9327 41.2972 12.368 41.2972 11.64H41.8712C41.8712 12.3773 41.7639 13.012 41.5492 13.544C41.3346 14.0667 41.0219 14.468 40.6112 14.748C40.2099 15.028 39.7246 15.168 39.1552 15.168C38.3152 15.168 37.6526 14.9067 37.1672 14.384C36.6912 13.8613 36.4532 13.068 36.4532 12.004L37.7832 11.584ZM47.1149 15.168C46.4149 15.168 45.8736 14.9907 45.4909 14.636C45.1082 14.272 44.9169 13.754 44.9169 13.082V5.816H46.2469V12.886C46.2469 13.2313 46.3309 13.4973 46.4989 13.684C46.6762 13.8613 46.9282 13.95 47.2549 13.95C47.3482 13.95 47.4509 13.9313 47.5629 13.894C47.6749 13.8567 47.8102 13.782 47.9689 13.67L48.4729 14.706C48.2302 14.8647 47.9969 14.9813 47.7729 15.056C47.5582 15.1307 47.3389 15.168 47.1149 15.168ZM43.7269 9.148V8H48.2349V9.148H43.7269ZM49.8139 15L49.8419 8H51.1579L51.1439 15H49.8139ZM50.4859 6.516C50.2713 6.516 50.0846 6.43667 49.9259 6.278C49.7673 6.11 49.6879 5.91867 49.6879 5.704C49.6879 5.48 49.7673 5.29333 49.9259 5.144C50.0846 4.98533 50.2713 4.906 50.4859 4.906C50.7099 4.906 50.8966 4.98533 51.0459 5.144C51.2046 5.29333 51.2839 5.48 51.2839 5.704C51.2839 5.91867 51.2046 6.11 51.0459 6.278C50.8966 6.43667 50.7099 6.516 50.4859 6.516ZM56.2012 15.168C55.5012 15.168 54.8852 15.014 54.3532 14.706C53.8212 14.3887 53.4012 13.9547 53.0932 13.404C52.7946 12.8533 52.6452 12.2187 52.6452 11.5C52.6452 10.7813 52.7946 10.1467 53.0932 9.596C53.3919 9.04533 53.8072 8.616 54.3392 8.308C54.8712 7.99067 55.4826 7.832 56.1732 7.832C56.8639 7.832 57.4752 7.99067 58.0072 8.308C58.5392 8.616 58.9546 9.04533 59.2532 9.596C59.5519 10.1467 59.7012 10.7813 59.7012 11.5C59.7012 12.2187 59.5519 12.8533 59.2532 13.404C58.9546 13.9547 58.5392 14.3887 58.0072 14.706C57.4846 15.014 56.8826 15.168 56.2012 15.168ZM56.2012 13.95C56.6212 13.95 56.9946 13.8473 57.3212 13.642C57.6479 13.4273 57.8999 13.138 58.0772 12.774C58.2639 12.41 58.3572 11.9853 58.3572 11.5C58.3572 11.0147 58.2639 10.59 58.0772 10.226C57.8999 9.862 57.6432 9.57733 57.3072 9.372C56.9712 9.15733 56.5932 9.05 56.1732 9.05C55.7439 9.05 55.3659 9.15733 55.0392 9.372C54.7126 9.57733 54.4559 9.862 54.2692 10.226C54.0826 10.59 53.9892 11.0147 53.9892 11.5C53.9892 11.9853 54.0826 12.41 54.2692 12.774C54.4559 13.138 54.7172 13.4273 55.0532 13.642C55.3892 13.8473 55.7719 13.95 56.2012 13.95ZM61.1023 15V8H62.3483L62.4323 9.288V15H61.1023ZM65.9463 15V11.416L67.2763 10.996V15H65.9463ZM65.9463 11.416C65.9463 10.7813 65.8716 10.3007 65.7223 9.974C65.5823 9.638 65.3816 9.40467 65.1203 9.274C64.8683 9.14333 64.5743 9.07333 64.2383 9.064C63.669 9.064 63.2256 9.26467 62.9083 9.666C62.591 10.0673 62.4323 10.632 62.4323 11.36H61.8583C61.8583 10.6227 61.9656 9.99267 62.1803 9.47C62.395 8.938 62.703 8.532 63.1043 8.252C63.515 7.972 64.005 7.832 64.5743 7.832C65.4143 7.832 66.0723 8.09333 66.5483 8.616C67.0336 9.12933 67.2763 9.92267 67.2763 10.996L65.9463 11.416ZM71.4 15.168C70.9053 15.168 70.462 15.0933 70.07 14.944C69.6873 14.7947 69.3606 14.594 69.09 14.342C68.8286 14.09 68.6326 13.8053 68.502 13.488L69.65 12.984C69.7993 13.2733 70.0233 13.5113 70.322 13.698C70.6206 13.8847 70.952 13.978 71.316 13.978C71.7173 13.978 72.0486 13.9033 72.31 13.754C72.5713 13.6047 72.702 13.3947 72.702 13.124C72.702 12.8627 72.604 12.6573 72.408 12.508C72.212 12.3587 71.9273 12.2373 71.554 12.144L70.896 11.976C70.2426 11.7987 69.734 11.5327 69.37 11.178C69.0153 10.8233 68.838 10.422 68.838 9.974C68.838 9.29267 69.0573 8.76533 69.496 8.392C69.9346 8.01867 70.5833 7.832 71.442 7.832C71.862 7.832 72.2446 7.89267 72.59 8.014C72.9446 8.13533 73.2433 8.308 73.486 8.532C73.738 8.756 73.9153 9.022 74.018 9.33L72.898 9.834C72.786 9.554 72.5946 9.34867 72.324 9.218C72.0533 9.078 71.736 9.008 71.372 9.008C70.9986 9.008 70.7046 9.092 70.49 9.26C70.2753 9.41867 70.168 9.64267 70.168 9.932C70.168 10.0907 70.2566 10.2447 70.434 10.394C70.6206 10.534 70.8913 10.6507 71.246 10.744L72.002 10.926C72.4593 11.038 72.8373 11.2107 73.136 11.444C73.4346 11.668 73.6586 11.9247 73.808 12.214C73.9573 12.494 74.032 12.788 74.032 13.096C74.032 13.516 73.9153 13.8847 73.682 14.202C73.458 14.51 73.1453 14.748 72.744 14.916C72.352 15.084 71.904 15.168 71.4 15.168Z" fill="#1D1F1E"/>
</svg>
