<svg width="843" height="266" viewBox="0 0 843 266" fill="none" xmlns="http://www.w3.org/2000/svg">
<path fill-rule="evenodd" clip-rule="evenodd" d="M-119.254 15.7612C-119.025 16.2055 -119.025 16.2054 -119.024 16.205L-119.02 16.2028L-119.001 16.1931C-118.984 16.1844 -118.957 16.1711 -118.922 16.1534C-118.85 16.1179 -118.742 16.0649 -118.597 15.9955C-118.307 15.8568 -117.869 15.653 -117.283 15.3947C-116.111 14.8782 -114.344 14.1438 -111.975 13.2772C-107.238 11.5439 -100.094 9.28157 -90.4854 7.1746C-71.2686 2.96078 -42.19 -0.632256 -2.78471 1.87388C76.025 6.88611 196.158 36.2959 361.327 133.955C526.603 231.677 646.887 261.149 725.884 266.173C765.382 268.685 794.554 265.085 813.862 260.851C823.516 258.734 830.703 256.459 835.482 254.711C837.871 253.837 839.657 253.094 840.849 252.569C841.445 252.307 841.892 252.099 842.191 251.956C842.29 251.909 842.372 251.869 842.438 251.836L842.53 251.791C842.567 251.772 842.596 251.758 842.616 251.748L842.638 251.736L842.644 251.733C842.645 251.733 842.645 251.733 842.635 251.713C842.618 251.677 842.566 251.576 842.417 251.288C842.188 250.843 842.188 250.844 842.187 250.844L842.183 250.846L842.164 250.856C842.147 250.865 842.12 250.878 842.084 250.896C842.013 250.931 841.905 250.984 841.76 251.053C841.591 251.134 841.372 251.237 841.103 251.36C840.91 251.448 840.691 251.546 840.446 251.654C839.273 252.171 837.507 252.905 835.138 253.772C830.401 255.505 823.257 257.767 813.648 259.874C794.432 264.088 765.353 267.681 725.948 265.175C647.138 260.163 527.004 230.753 361.836 133.094C196.56 35.3719 76.2759 5.90005 -2.72124 0.875892C-42.2194 -1.63615 -71.3915 1.96396 -90.6996 6.19781C-100.353 8.31467 -107.54 10.5898 -112.319 12.3381C-114.708 13.2122 -116.495 13.9546 -117.686 14.4796C-118.282 14.7421 -118.729 14.9503 -119.029 15.0934C-119.178 15.1649 -119.291 15.2202 -119.367 15.2579C-119.405 15.2768 -119.433 15.2912 -119.453 15.3011L-119.475 15.3125L-119.481 15.3155C-119.483 15.3163 -119.484 15.3168 -119.254 15.7612ZM-121.445 22.9132C-121.445 22.9136 -121.445 22.9137 -121.675 22.4694C-121.904 22.025 -121.903 22.0245 -121.902 22.0237L-121.896 22.0207L-121.873 22.0093L-121.834 21.9894L-121.787 21.9661C-121.711 21.9284 -121.599 21.8731 -121.449 21.8016C-121.15 21.6585 -120.703 21.4503 -120.107 21.1878C-118.915 20.6628 -117.128 19.9204 -114.739 19.0463C-109.961 17.298 -102.774 15.0229 -93.12 12.906C-73.8119 8.67216 -44.6398 5.07205 -5.14167 7.5841C73.8555 12.6082 194.14 42.0801 359.416 139.802C524.584 237.461 644.717 266.871 723.527 271.883C762.932 274.389 792.011 270.796 811.228 266.582C820.837 264.476 827.98 262.213 832.718 260.48C835.086 259.613 836.853 258.879 838.026 258.362C838.612 258.104 839.05 257.9 839.34 257.762C839.398 257.733 839.451 257.708 839.498 257.685C839.566 257.652 839.622 257.625 839.664 257.604C839.7 257.586 839.726 257.573 839.743 257.564L839.762 257.554L839.767 257.552C839.767 257.552 839.768 257.552 839.997 257.996L840.118 258.23C840.177 258.346 840.203 258.398 840.215 258.421C840.22 258.432 840.222 258.437 840.223 258.439C840.224 258.441 840.224 258.441 840.224 258.442L840.218 258.445L840.195 258.456C840.176 258.466 840.147 258.48 840.109 258.499C840.033 258.537 839.921 258.592 839.771 258.664C839.472 258.807 839.025 259.015 838.429 259.277C837.237 259.802 835.45 260.545 833.061 261.419C828.283 263.167 821.096 265.442 811.442 267.559C792.134 271.793 762.962 275.393 723.464 272.881C644.467 267.857 524.182 238.385 358.907 140.663C193.738 43.0041 73.6046 13.5943 -5.20513 8.58208C-44.6104 6.07594 -73.689 9.66897 -92.9058 13.8828C-102.514 15.9898 -109.658 18.2521 -114.395 19.9854C-116.764 20.852 -118.531 21.5864 -119.704 22.1029C-120.29 22.3612 -120.728 22.565 -121.018 22.7037C-121.163 22.7731 -121.271 22.8261 -121.342 22.8616L-121.371 22.8761L-121.421 22.9013L-121.44 22.911L-121.445 22.9132ZM-124.095 29.1776C-123.866 29.6219 -123.866 29.6218 -123.865 29.6214L-123.861 29.6192L-123.842 29.6095L-123.817 29.5972L-123.763 29.5698C-123.691 29.5343 -123.583 29.4813 -123.438 29.4119C-123.148 29.2733 -122.71 29.0694 -122.124 28.8111C-120.952 28.2946 -119.185 27.5602 -116.816 26.6936C-112.079 24.9603 -104.935 22.698 -95.3264 20.591C-76.1096 16.3772 -47.031 12.7841 -7.62573 15.2903C71.184 20.3025 191.317 49.7123 356.486 147.371C521.762 245.093 642.046 274.565 721.043 279.589C760.541 282.101 789.713 278.501 809.021 274.268C818.675 272.151 825.862 269.876 830.64 268.127C833.03 267.253 834.816 266.511 836.008 265.986C836.604 265.723 837.051 265.515 837.35 265.372C837.453 265.323 837.539 265.281 837.607 265.248L837.689 265.207L837.746 265.179L837.775 265.164L837.797 265.153L837.803 265.15C837.804 265.149 837.804 265.149 837.794 265.13C837.777 265.094 837.725 264.992 837.576 264.704C837.347 264.26 837.347 264.26 837.346 264.26L837.342 264.262L837.323 264.272L837.293 264.287L837.243 264.312C837.172 264.347 837.064 264.4 836.919 264.47C836.81 264.522 836.68 264.583 836.529 264.654C836.278 264.77 835.971 264.91 835.605 265.071C834.432 265.587 832.665 266.321 830.297 267.188C825.56 268.921 818.416 271.184 808.807 273.291C789.591 277.505 760.512 281.098 721.107 278.591C642.297 273.579 522.163 244.169 356.995 146.51C191.719 48.7883 71.4349 19.3164 -7.56227 14.2923C-47.0604 11.7803 -76.2325 15.3804 -95.5406 19.6142C-105.194 21.7311 -112.381 24.0062 -117.16 25.7545C-119.549 26.6286 -121.336 27.371 -122.527 27.896C-123.123 28.1585 -123.57 28.3667 -123.87 28.5098C-124.019 28.5813 -124.132 28.6366 -124.208 28.6743L-124.264 28.7027L-124.294 28.7175L-124.316 28.7289L-124.322 28.7319C-124.324 28.7327 -124.325 28.7332 -124.095 29.1776ZM-126.286 36.3296C-126.286 36.33 -126.286 36.3301 -126.516 35.8858C-126.745 35.4414 -126.744 35.4409 -126.743 35.4401L-126.737 35.4371L-126.714 35.4257C-126.695 35.4158 -126.666 35.4014 -126.628 35.3825C-126.552 35.3448 -126.44 35.2895 -126.29 35.218C-125.991 35.0749 -125.544 34.8667 -124.948 34.6042C-123.756 34.0792 -121.969 33.3368 -119.58 32.4627C-114.802 30.7144 -107.615 28.4393 -97.961 26.3224C-78.6529 22.0886 -49.4809 18.4885 -9.98269 21.0005C69.0144 26.0247 189.299 55.4965 354.575 153.219C519.743 250.878 639.876 280.287 718.686 285.3C758.091 287.806 787.17 284.213 806.387 279.999C815.995 277.892 823.139 275.63 827.876 273.896C830.245 273.03 832.012 272.295 833.185 271.779C833.771 271.52 834.209 271.317 834.499 271.178C834.644 271.109 834.752 271.056 834.823 271.02C834.859 271.002 834.885 270.989 834.902 270.98L834.921 270.971L834.926 270.969C834.926 270.968 834.927 270.968 835.156 271.412C835.226 271.548 835.274 271.642 835.308 271.707C835.346 271.781 835.365 271.819 835.374 271.838C835.384 271.857 835.383 271.858 835.383 271.858L835.377 271.861L835.354 271.872C835.335 271.882 835.306 271.897 835.268 271.916C835.238 271.931 835.201 271.949 835.159 271.969C835.124 271.987 835.085 272.006 835.042 272.026C835.007 272.043 834.97 272.061 834.93 272.08C834.631 272.223 834.184 272.431 833.588 272.694C832.396 273.219 830.609 273.961 828.22 274.835C823.442 276.584 816.255 278.859 806.601 280.976C787.293 285.21 758.121 288.81 718.623 286.298C639.626 281.274 519.341 251.802 354.066 154.079C188.897 56.4205 68.7636 27.0107 -10.0462 21.9985C-49.4514 19.4923 -78.53 23.0854 -97.7468 27.2992C-107.355 29.4062 -114.499 31.6685 -119.236 33.4018C-121.605 34.2684 -123.372 35.0028 -124.545 35.5193C-125.131 35.7776 -125.569 35.9815 -125.859 36.1201C-126.004 36.1895 -126.112 36.2425 -126.183 36.278C-126.219 36.2957 -126.245 36.309 -126.262 36.3177L-126.281 36.3274L-126.286 36.3296ZM-128.936 42.594C-128.707 43.0383 -128.707 43.0382 -128.706 43.0378L-128.702 43.0356L-128.683 43.0259C-128.665 43.0172 -128.639 43.0039 -128.603 42.9862C-128.532 42.9507 -128.424 42.8977 -128.279 42.8283C-127.989 42.6897 -127.551 42.4858 -126.965 42.2275C-125.792 41.711 -124.025 40.9766 -121.657 40.11C-116.92 38.3767 -109.776 36.1144 -100.167 34.0074C-80.9505 29.7936 -51.8719 26.2005 -12.4666 28.7067C66.3432 33.7189 186.477 63.1287 351.645 160.788C516.921 258.51 637.205 287.982 716.202 293.006C755.7 295.518 784.872 291.918 804.181 287.684C813.834 285.567 821.021 283.292 825.8 281.544C828.189 280.67 829.976 279.927 831.167 279.402C831.536 279.24 831.847 279.098 832.102 278.98L832.2 278.934L832.351 278.864L832.452 278.816L832.51 278.788C832.659 278.717 832.772 278.661 832.848 278.624C832.886 278.605 832.914 278.591 832.934 278.581L832.956 278.569L832.962 278.566C832.963 278.566 832.963 278.566 832.954 278.546C832.936 278.51 832.884 278.409 832.735 278.121L832.54 277.743C832.506 277.676 832.506 277.677 832.505 277.677L832.501 277.679L832.482 277.689C832.465 277.697 832.438 277.711 832.403 277.728L832.334 277.762C832.268 277.795 832.183 277.836 832.078 277.886C831.788 278.025 831.35 278.229 830.764 278.487C829.592 279.004 827.825 279.738 825.456 280.605C820.719 282.338 813.575 284.6 803.966 286.707C784.75 290.921 755.671 294.514 716.266 292.008C637.456 286.996 517.323 257.586 352.154 159.927C186.879 62.2047 66.594 32.7329 -12.4031 27.7087C-51.9013 25.1967 -81.0733 28.7968 -100.381 33.0306C-110.035 35.1475 -117.222 37.4226 -122 39.1709C-124.39 40.045 -126.176 40.7874 -127.368 41.3124C-127.964 41.5749 -128.411 41.7831 -128.71 41.9262C-128.86 41.9977 -128.973 42.053 -129.049 42.0907L-129.111 42.1219L-129.135 42.1339L-129.157 42.1453L-129.163 42.1483C-129.165 42.1491 -129.166 42.1497 -128.936 42.594ZM-131.127 49.746C-131.127 49.7464 -131.128 49.7465 -131.357 49.3022C-131.586 48.8579 -131.585 48.8573 -131.584 48.8565L-131.578 48.8535L-131.555 48.8421C-131.536 48.8322 -131.507 48.8178 -131.469 48.7989C-131.393 48.7612 -131.281 48.706 -131.131 48.6344C-130.832 48.4913 -130.385 48.2831 -129.789 48.0206C-128.597 47.4956 -126.81 46.7532 -124.421 45.8791C-119.643 44.1308 -112.456 41.8557 -102.802 39.7388C-83.4939 35.505 -54.3219 31.9049 -14.8237 34.4169C64.1734 39.4411 184.458 68.9129 349.733 166.635C514.902 264.294 635.035 293.704 713.845 298.716C753.25 301.222 782.329 297.629 801.546 293.415C811.154 291.308 818.298 289.046 823.035 287.313C825.404 286.446 827.171 285.712 828.344 285.195C828.93 284.937 829.368 284.733 829.658 284.594C829.726 284.561 829.787 284.532 829.839 284.507C829.897 284.479 829.944 284.455 829.982 284.437L830.022 284.416L830.061 284.397L830.08 284.387L830.085 284.385C830.085 284.385 830.085 284.385 830.119 284.45L830.315 284.829C830.463 285.117 830.515 285.218 830.533 285.254C830.543 285.274 830.542 285.274 830.542 285.274L830.536 285.277L830.513 285.289C830.494 285.299 830.465 285.313 830.427 285.332C830.351 285.37 830.239 285.425 830.089 285.497L829.984 285.547L829.85 285.61L829.777 285.644C829.642 285.707 829.488 285.778 829.316 285.856C829.145 285.934 828.955 286.019 828.747 286.11C827.555 286.635 825.768 287.378 823.379 288.252C818.601 290 811.414 292.275 801.76 294.392C782.452 298.626 753.28 302.226 713.782 299.714C634.785 294.69 514.5 265.218 349.225 167.496C184.056 69.8369 63.9226 40.4271 -14.8872 35.4149C-54.2925 32.9088 -83.3711 36.5018 -102.588 40.7156C-112.196 42.8226 -119.34 45.085 -124.077 46.8182C-126.446 47.6848 -128.213 48.4192 -129.386 48.9358C-129.972 49.194 -130.41 49.3979 -130.7 49.5366C-130.845 49.6059 -130.953 49.659 -131.024 49.6944C-131.06 49.7121 -131.086 49.7254 -131.103 49.7342L-131.122 49.7438L-131.127 49.746ZM-133.777 56.0106C-133.548 56.4549 -133.548 56.4548 -133.547 56.4545L-133.543 56.4523L-133.524 56.4426L-133.487 56.4239L-133.444 56.4028C-133.373 56.3674 -133.265 56.3143 -133.12 56.245C-132.83 56.1063 -132.392 55.9025 -131.806 55.6442C-130.633 55.1276 -128.866 54.3933 -126.498 53.5266C-121.761 51.7934 -114.617 49.531 -105.008 47.4241C-85.7915 43.2102 -56.7129 39.6172 -17.3076 42.1233C61.5021 47.1356 181.636 76.5454 346.804 174.204C512.08 271.927 632.364 301.398 711.361 306.422C750.859 308.934 780.032 305.334 799.34 301.101C808.993 298.984 816.18 296.709 820.959 294.96C823.348 294.086 825.135 293.344 826.326 292.819C826.922 292.556 827.369 292.348 827.669 292.205C827.746 292.168 827.813 292.136 827.87 292.108C827.924 292.081 827.97 292.059 828.007 292.04L828.041 292.023L828.093 291.997L828.115 291.986L828.121 291.983C828.122 291.983 828.122 291.982 828.117 291.973C828.105 291.947 828.06 291.857 827.894 291.537C827.764 291.284 827.707 291.175 827.683 291.128L827.669 291.102C827.665 291.093 827.664 291.093 827.664 291.093L827.66 291.096L827.641 291.105C827.624 291.114 827.597 291.127 827.562 291.145C827.532 291.16 827.496 291.178 827.453 291.198L827.382 291.233L827.327 291.26L827.237 291.303C826.947 291.442 826.509 291.645 825.923 291.904C824.751 292.42 822.984 293.155 820.615 294.021C815.878 295.754 808.734 298.017 799.125 300.124C779.909 304.338 750.83 307.931 711.425 305.424C632.615 300.412 512.482 271.002 347.313 173.344C182.037 75.6213 61.753 46.1495 -17.2442 41.1254C-56.7423 38.6133 -85.9144 42.2134 -105.222 46.4473C-114.876 48.5641 -122.063 50.8392 -126.842 52.5875C-129.231 53.4616 -131.017 54.204 -132.209 54.7291C-132.805 54.9916 -133.252 55.1997 -133.551 55.3428C-133.701 55.4144 -133.814 55.4697 -133.89 55.5074C-133.927 55.5262 -133.956 55.5407 -133.976 55.5505L-133.998 55.5619L-134.004 55.565C-134.006 55.5658 -134.007 55.5663 -133.777 56.0106ZM-135.968 63.1627C-135.968 63.163 -135.969 63.1631 -136.198 62.7188C-136.427 62.2745 -136.426 62.274 -136.425 62.2732L-136.419 62.2701L-136.396 62.2587L-136.368 62.2447L-136.31 62.2156C-136.234 62.1779 -136.122 62.1226 -135.972 62.051C-135.673 61.9079 -135.226 61.6998 -134.63 61.4373C-133.438 60.9122 -131.651 60.1698 -129.262 59.2957C-124.484 57.5474 -117.297 55.2723 -107.643 53.1555C-88.335 48.9216 -59.1629 45.3215 -19.6647 47.8336C59.3324 52.8577 179.617 82.3295 344.892 180.052C510.061 277.711 630.194 307.12 709.004 312.133C748.409 314.639 777.488 311.046 796.705 306.832C806.313 304.725 813.457 302.463 818.194 300.729C820.563 299.863 822.33 299.128 823.503 298.612C824.089 298.353 824.527 298.15 824.817 298.011C824.902 297.97 824.974 297.935 825.034 297.906L825.091 297.878L825.141 297.853C825.177 297.835 825.203 297.822 825.22 297.813L825.239 297.804L825.244 297.802C825.244 297.801 825.244 297.801 825.474 298.245L825.574 298.441C825.616 298.521 825.644 298.576 825.663 298.613C825.677 298.641 825.686 298.659 825.692 298.671L825.698 298.683C825.701 298.691 825.701 298.691 825.701 298.691L825.695 298.694L825.672 298.705C825.653 298.715 825.624 298.73 825.586 298.749C825.544 298.769 825.491 298.795 825.427 298.827C825.375 298.852 825.315 298.881 825.248 298.913C825.086 298.991 824.881 299.087 824.632 299.201C824.421 299.298 824.179 299.407 823.906 299.527C822.714 300.052 820.927 300.794 818.538 301.668C813.76 303.417 806.573 305.692 796.919 307.809C777.611 312.043 748.439 315.643 708.941 313.131C629.944 308.107 509.659 278.635 344.383 180.913C179.215 83.2536 59.0816 53.8438 -19.7282 48.8315C-59.1335 46.3254 -88.2121 49.9184 -107.429 54.1323C-117.037 56.2392 -124.181 58.5016 -128.918 60.2348C-131.287 61.1015 -133.054 61.8358 -134.227 62.3524C-134.813 62.6107 -135.251 62.8145 -135.541 62.9532C-135.686 63.0225 -135.794 63.0756 -135.865 63.111C-135.901 63.1287 -135.927 63.1421 -135.944 63.1508L-135.963 63.1605L-135.968 63.1627ZM-138.618 69.427C-138.389 69.8713 -138.389 69.8712 -138.388 69.8709L-138.384 69.8687L-138.365 69.859L-138.322 69.8377L-138.285 69.8192C-138.214 69.7838 -138.106 69.7307 -137.961 69.6614C-137.671 69.5227 -137.233 69.3189 -136.647 69.0606C-135.474 68.544 -133.708 67.8097 -131.339 66.943C-126.602 65.2098 -119.458 62.9474 -109.849 60.8405C-90.6325 56.6266 -61.5539 53.0336 -22.1486 55.5397C56.6611 60.552 176.795 89.9618 341.963 187.621C507.239 285.343 627.523 314.815 706.52 319.839C746.018 322.351 775.19 318.751 794.499 314.517C804.152 312.4 811.339 310.125 816.118 308.377C818.507 307.503 820.294 306.76 821.485 306.235C822.081 305.973 822.528 305.765 822.828 305.621C822.977 305.55 823.09 305.495 823.166 305.457C823.204 305.438 823.232 305.424 823.252 305.414L823.274 305.402L823.28 305.399C823.281 305.399 823.281 305.399 823.272 305.379C823.254 305.343 823.202 305.242 823.053 304.954L822.854 304.568C822.838 304.537 822.83 304.522 822.827 304.516L822.824 304.511C822.823 304.51 822.823 304.51 822.823 304.51L822.819 304.512L822.8 304.522C822.783 304.53 822.756 304.544 822.721 304.561C822.669 304.587 822.598 304.622 822.508 304.665L822.396 304.719C822.106 304.858 821.668 305.062 821.082 305.32C819.91 305.837 818.143 306.571 815.774 307.438C811.037 309.171 803.893 311.433 794.284 313.54C775.068 317.754 745.989 321.347 706.584 318.841C627.774 313.829 507.641 284.419 342.472 186.76C177.197 89.0377 56.9119 59.5659 -22.0852 54.5417C-61.5833 52.0297 -90.7554 55.6298 -110.063 59.8637C-119.717 61.9805 -126.904 64.2556 -131.683 66.0039C-134.072 66.878 -135.858 67.6204 -137.05 68.1455C-137.646 68.408 -138.093 68.6161 -138.392 68.7592C-138.542 68.8308 -138.655 68.8861 -138.731 68.9238C-138.768 68.9426 -138.797 68.9571 -138.817 68.9669L-138.839 68.9783L-138.845 68.9814C-138.847 68.9822 -138.848 68.9827 -138.618 69.427ZM-140.809 76.5791C-140.809 76.5795 -140.809 76.5795 -141.039 76.1352C-141.268 75.6909 -141.267 75.6904 -141.265 75.6896L-141.259 75.6865L-141.237 75.6751C-141.218 75.6653 -141.189 75.6508 -141.151 75.632C-141.075 75.5943 -140.963 75.539 -140.813 75.4674C-140.514 75.3243 -140.067 75.1162 -139.471 74.8537C-138.279 74.3287 -136.492 73.5863 -134.103 72.7121C-129.325 70.9639 -122.138 68.6887 -112.484 66.5719C-93.1758 62.338 -64.0038 58.7379 -24.5056 61.25C54.4915 66.2741 174.776 95.7459 340.052 193.468C505.22 291.127 625.353 320.537 704.163 325.549C743.569 328.055 772.647 324.462 791.864 320.248C801.473 318.141 808.616 315.879 813.354 314.146C815.722 313.279 817.489 312.545 818.662 312.028C818.958 311.898 819.216 311.781 819.437 311.68C819.653 311.581 819.832 311.496 819.976 311.427C820.121 311.358 820.229 311.305 820.3 311.27C820.336 311.252 820.362 311.239 820.379 311.23L820.398 311.22L820.403 311.218C820.403 311.218 820.404 311.218 820.633 311.662C820.782 311.95 820.833 312.051 820.851 312.087C820.861 312.107 820.86 312.107 820.86 312.107L820.854 312.111L820.831 312.122L820.816 312.129L820.745 312.165C820.669 312.203 820.557 312.258 820.407 312.33C820.108 312.473 819.661 312.681 819.065 312.943C817.873 313.468 816.086 314.211 813.697 315.085C808.919 316.833 801.732 319.108 792.078 321.225C772.77 325.459 743.598 329.059 704.1 326.547C625.103 321.523 504.818 292.051 339.543 194.329C174.374 96.67 54.2407 67.2602 -24.5691 62.248C-63.9743 59.7418 -93.053 63.3348 -112.27 67.5487C-121.878 69.6556 -129.022 71.918 -133.759 73.6512C-136.128 74.5179 -137.895 75.2522 -139.067 75.7688C-139.654 76.0271 -140.091 76.2309 -140.381 76.3696C-140.526 76.4389 -140.635 76.492 -140.706 76.5274L-140.748 76.5483L-140.785 76.5672L-140.804 76.5769L-140.809 76.5791ZM-143.459 82.8434C-143.23 83.2877 -143.23 83.2877 -143.229 83.2873L-143.225 83.2851L-143.206 83.2754C-143.189 83.2667 -143.162 83.2534 -143.126 83.2356L-143.037 83.1915C-142.974 83.1606 -142.896 83.1226 -142.802 83.0778C-142.512 82.9391 -142.074 82.7353 -141.488 82.477C-140.316 81.9605 -138.549 81.2261 -136.18 80.3594C-131.443 78.6262 -124.299 76.3638 -114.69 74.2569C-95.4736 70.043 -66.3949 66.45 -26.9897 68.9562C51.8201 73.9684 171.953 103.378 337.122 201.037C502.398 298.759 622.682 328.231 701.679 333.255C741.177 335.767 770.349 332.167 789.657 327.933C799.311 325.817 806.498 323.541 811.277 321.793C813.666 320.919 815.452 320.177 816.644 319.652C816.788 319.588 816.922 319.528 817.049 319.472C817.172 319.416 817.287 319.364 817.395 319.315C817.633 319.206 817.83 319.113 817.987 319.038C818.059 319.003 818.124 318.972 818.179 318.945L818.277 318.897L818.325 318.873L818.365 318.853L818.411 318.83L818.433 318.819L818.439 318.816C818.439 318.815 818.44 318.815 818.438 318.81L818.43 318.796C818.413 318.76 818.361 318.658 818.212 318.37C817.983 317.926 817.983 317.926 817.982 317.926L817.978 317.928L817.959 317.938C817.942 317.947 817.915 317.96 817.879 317.978C817.836 317.999 817.779 318.028 817.708 318.062C817.662 318.084 817.612 318.109 817.555 318.136C817.265 318.274 816.827 318.478 816.241 318.736C815.068 319.253 813.302 319.987 810.933 320.854C806.196 322.587 799.052 324.85 789.443 326.957C770.227 331.17 741.148 334.763 701.743 332.257C622.933 327.245 502.8 297.835 337.631 200.176C172.355 102.454 52.0709 72.9823 -26.9262 67.9582C-66.4244 65.4461 -95.5964 69.0462 -114.905 73.2801C-124.558 75.3969 -131.745 77.6721 -136.524 79.4203C-138.913 80.2945 -140.699 81.0369 -141.891 81.5619C-142.487 81.8244 -142.934 82.0325 -143.234 82.1757C-143.383 82.2472 -143.496 82.3025 -143.572 82.3402C-143.61 82.359 -143.638 82.3735 -143.658 82.3834L-143.68 82.3947L-143.686 82.3978C-143.688 82.3986 -143.689 82.3991 -143.459 82.8434ZM-145.65 89.9955C-145.65 89.9959 -145.65 89.9959 -145.88 89.5516C-146.109 89.1073 -146.108 89.1068 -146.106 89.106L-146.1 89.1029L-146.078 89.0916C-146.059 89.0817 -146.03 89.0672 -145.992 89.0484C-145.916 89.0107 -145.804 88.9554 -145.654 88.8839C-145.355 88.7407 -144.908 88.5326 -144.312 88.2701C-143.12 87.7451 -141.333 87.0027 -138.944 86.1285C-134.166 84.3803 -126.979 82.1051 -117.325 79.9883C-98.0169 75.7544 -68.8448 72.1543 -29.3466 74.6664C49.6505 79.6905 169.935 109.162 335.211 206.884C500.379 304.543 620.512 333.953 699.322 338.966C738.728 341.472 767.806 337.879 787.023 333.665C796.632 331.558 803.775 329.295 808.513 327.562C810.881 326.696 812.648 325.961 813.821 325.445C814.093 325.325 814.334 325.216 814.542 325.121C814.655 325.069 814.758 325.021 814.852 324.978C814.958 324.928 815.052 324.883 815.135 324.844C815.28 324.775 815.388 324.721 815.459 324.686C815.495 324.668 815.521 324.655 815.538 324.646L815.557 324.637L815.562 324.634C815.562 324.634 815.562 324.634 815.613 324.733L815.792 325.078C815.941 325.366 815.992 325.468 816.01 325.504C816.014 325.512 816.016 325.517 816.017 325.519C816.019 325.524 816.019 325.524 816.019 325.524L816.013 325.527L815.99 325.538L815.964 325.551L815.904 325.581C815.828 325.619 815.716 325.674 815.566 325.746C815.39 325.83 815.162 325.937 814.884 326.064C814.822 326.092 814.758 326.121 814.692 326.151L814.583 326.2C814.47 326.251 814.35 326.304 814.224 326.36C813.032 326.885 811.245 327.627 808.856 328.501C804.078 330.25 796.891 332.525 787.237 334.642C767.929 338.875 738.757 342.476 699.259 339.964C620.262 334.939 499.977 305.467 334.702 207.745C169.533 110.086 49.3996 80.6766 -29.4101 75.6644C-68.8154 73.1582 -97.894 76.7512 -117.111 80.9651C-126.719 83.072 -133.863 85.3344 -138.6 87.0676C-140.969 87.9343 -142.736 88.6687 -143.909 89.1852C-144.495 89.4435 -144.933 89.6473 -145.223 89.786C-145.368 89.8554 -145.476 89.9084 -145.547 89.9438C-145.583 89.9616 -145.609 89.9749 -145.626 89.9836L-145.645 89.9933L-145.65 89.9955ZM-148.3 96.2598L-148.111 96.6259C-148.091 96.6652 -148.081 96.6846 -148.075 96.6943C-148.07 96.7039 -148.07 96.7038 -148.07 96.7037L-148.066 96.7015L-148.047 96.6918L-148.017 96.677L-147.967 96.652C-147.938 96.6374 -147.902 96.6197 -147.86 96.5991C-147.8 96.5699 -147.728 96.5348 -147.643 96.4942C-147.353 96.3555 -146.915 96.1517 -146.329 95.8934C-145.156 95.3769 -143.389 94.6425 -141.021 93.7758C-136.284 92.0426 -129.14 89.7802 -119.531 87.6733C-100.314 83.4594 -71.2358 79.8664 -31.8305 82.3726C46.9792 87.3848 167.113 116.795 332.281 214.454C497.557 312.176 617.841 341.648 696.838 346.672C736.336 349.184 765.509 345.584 784.817 341.35C794.47 339.233 801.657 336.958 806.436 335.209C808.825 334.335 810.612 333.593 811.803 333.068L811.963 332.997L812.094 332.939C812.219 332.883 812.336 332.83 812.445 332.781C812.732 332.65 812.966 332.54 813.146 332.454C813.295 332.383 813.408 332.327 813.484 332.29L813.544 332.26L813.57 332.247L813.592 332.235L813.598 332.232C813.599 332.232 813.599 332.231 813.59 332.212C813.572 332.176 813.52 332.074 813.371 331.786C813.239 331.53 813.183 331.422 813.159 331.376C813.142 331.342 813.142 331.342 813.141 331.343L813.137 331.345L813.118 331.354C813.101 331.363 813.074 331.376 813.039 331.394C812.967 331.43 812.859 331.483 812.714 331.552C812.538 331.636 812.307 331.745 812.021 331.875L811.909 331.926C811.847 331.954 811.783 331.983 811.716 332.013C811.616 332.057 811.511 332.104 811.4 332.153C810.228 332.669 808.461 333.404 806.092 334.27C801.355 336.004 794.211 338.266 784.602 340.373C765.386 344.587 736.307 348.18 696.902 345.674C618.092 340.661 497.959 311.252 332.79 213.593C167.515 115.871 47.2301 86.3987 -31.7671 81.3746C-71.2652 78.8625 -100.437 82.4626 -119.745 86.6965C-129.399 88.8133 -136.586 91.0885 -141.364 92.8367C-143.754 93.7109 -145.54 94.4533 -146.732 94.9783C-147.328 95.2408 -147.775 95.449 -148.074 95.5921C-148.224 95.6636 -148.337 95.7189 -148.412 95.7566C-148.45 95.7754 -148.479 95.7899 -148.499 95.7998L-148.521 95.8111L-148.527 95.8142C-148.528 95.815 -148.529 95.8155 -148.3 96.2598ZM-150.491 103.412C-150.491 103.412 -150.491 103.413 -150.721 102.968C-150.95 102.524 -150.949 102.523 -150.948 102.523L-150.942 102.52L-150.919 102.508C-150.9 102.498 -150.871 102.484 -150.833 102.465L-150.746 102.422L-150.699 102.399L-150.618 102.36C-150.58 102.341 -150.539 102.322 -150.495 102.3C-150.196 102.157 -149.749 101.949 -149.153 101.687C-147.961 101.162 -146.174 100.419 -143.785 99.5452C-139.007 97.7969 -131.82 95.5218 -122.166 93.4049C-102.858 89.1711 -73.6858 85.571 -34.1877 88.083C44.8094 93.1072 165.094 122.579 330.37 220.301C495.538 317.96 615.671 347.37 694.481 352.382C733.887 354.888 762.965 351.295 782.182 347.081C791.791 344.974 798.934 342.712 803.672 340.979C806.04 340.112 807.807 339.378 808.98 338.861C809.566 338.603 810.004 338.399 810.294 338.261C810.439 338.191 810.547 338.138 810.618 338.103C810.654 338.085 810.68 338.072 810.697 338.063L810.716 338.053L810.721 338.051C810.721 338.051 810.722 338.051 810.951 338.495C811.1 338.783 811.151 338.884 811.169 338.92C811.179 338.94 811.178 338.94 811.178 338.94L811.172 338.944L811.149 338.955L811.136 338.962L811.081 338.989L811.063 338.998C810.987 339.036 810.875 339.091 810.725 339.163C810.548 339.247 810.319 339.355 810.039 339.483C809.911 339.541 809.773 339.603 809.624 339.67C809.546 339.704 809.466 339.74 809.383 339.776C808.191 340.301 806.404 341.044 804.015 341.918C799.237 343.666 792.05 345.941 782.396 348.058C763.088 352.292 733.916 355.892 694.418 353.38C615.421 348.356 495.136 318.884 329.861 221.162C164.692 123.503 44.5586 94.0932 -34.2511 89.081C-73.6564 86.5748 -102.735 90.1679 -121.952 94.3817C-131.56 96.4887 -138.704 98.751 -143.441 100.484C-145.81 101.351 -147.577 102.085 -148.75 102.602C-149.336 102.86 -149.774 103.064 -150.064 103.203C-150.209 103.272 -150.317 103.325 -150.388 103.36C-150.424 103.378 -150.45 103.392 -150.467 103.4L-150.486 103.41L-150.491 103.412ZM-153.141 109.676C-152.912 110.121 -152.912 110.121 -152.911 110.12L-152.907 110.118L-152.888 110.108C-152.87 110.1 -152.844 110.086 -152.808 110.069C-152.737 110.033 -152.629 109.98 -152.484 109.911C-152.194 109.772 -151.756 109.568 -151.17 109.31C-149.997 108.793 -148.23 108.059 -145.862 107.192C-141.125 105.459 -133.981 103.197 -124.372 101.09C-105.155 96.8761 -76.0768 93.2831 -36.6716 95.7892C42.1382 100.801 162.272 130.211 327.44 227.87C492.716 325.592 613 355.064 691.997 360.088C731.495 362.6 760.668 359 779.976 354.766C789.629 352.65 796.816 350.374 801.595 348.626C803.984 347.752 805.771 347.01 806.962 346.485C807.558 346.222 808.005 346.014 808.305 345.871C808.364 345.842 808.418 345.816 808.466 345.793C808.538 345.758 808.597 345.729 808.643 345.706L808.691 345.682L808.729 345.663L808.751 345.652L808.757 345.649C808.757 345.649 808.757 345.649 808.757 345.648L808.757 345.647L808.756 345.645C808.755 345.642 808.753 345.637 808.749 345.629C808.731 345.593 808.679 345.491 808.53 345.203L808.392 344.935L808.334 344.823C808.314 344.784 808.306 344.769 808.303 344.763C808.3 344.759 808.3 344.759 808.3 344.759L808.296 344.761L808.277 344.771L808.231 344.794L808.198 344.811L808.106 344.856C808.065 344.876 808.019 344.899 807.966 344.924L807.873 344.969C807.583 345.107 807.146 345.311 806.559 345.569C805.387 346.086 803.62 346.82 801.251 347.687C796.514 349.42 789.37 351.683 779.761 353.79C760.545 358.003 731.466 361.596 692.061 359.09C613.251 354.078 493.118 324.668 327.949 227.009C162.674 129.287 42.389 99.8154 -36.6081 94.7912C-76.1062 92.2792 -105.278 95.8793 -124.586 100.113C-134.24 102.23 -141.427 104.505 -146.205 106.253C-148.595 107.128 -150.381 107.87 -151.573 108.395C-152.169 108.657 -152.616 108.866 -152.915 109.009C-153.065 109.08 -153.178 109.136 -153.254 109.173C-153.291 109.192 -153.32 109.207 -153.34 109.216L-153.362 109.228L-153.368 109.231C-153.37 109.232 -153.371 109.232 -153.141 109.676ZM-155.331 116.829C-155.332 116.829 -155.332 116.829 -155.562 116.385C-155.791 115.94 -155.79 115.94 -155.788 115.939L-155.782 115.936L-155.76 115.925L-155.722 115.905L-155.674 115.881C-155.598 115.844 -155.485 115.788 -155.336 115.717C-155.037 115.574 -154.589 115.366 -153.994 115.103C-152.802 114.578 -151.015 113.836 -148.626 112.962C-143.848 111.213 -136.661 108.938 -127.007 106.821C-107.699 102.587 -78.5267 98.9874 -39.0285 101.499C39.9686 106.524 160.253 135.995 325.529 233.718C490.697 331.376 610.831 360.786 689.64 365.799C729.046 368.305 758.124 364.712 777.341 360.498C786.95 358.391 794.093 356.128 798.831 354.395C801.199 353.529 802.966 352.794 804.139 352.278L804.297 352.208L804.422 352.152C804.489 352.122 804.555 352.092 804.618 352.064C804.97 351.905 805.248 351.775 805.453 351.677C805.519 351.645 805.578 351.617 805.629 351.592C805.689 351.563 805.739 351.538 805.777 351.519L805.828 351.494L805.856 351.479L805.875 351.47L805.88 351.467C805.88 351.467 805.88 351.467 805.925 351.553L806.11 351.911C806.259 352.199 806.311 352.301 806.328 352.337C806.338 352.356 806.337 352.357 806.337 352.357L806.331 352.36L806.308 352.371C806.289 352.381 806.26 352.396 806.222 352.414C806.147 352.452 806.034 352.507 805.884 352.579C805.585 352.722 805.138 352.93 804.542 353.193C803.35 353.718 801.563 354.46 799.174 355.334C794.396 357.083 787.209 359.358 777.555 361.475C758.247 365.708 729.075 369.309 689.577 366.797C610.58 361.772 490.295 332.301 325.02 234.578C159.851 136.919 39.7178 107.51 -39.092 102.497C-78.4973 99.9913 -107.576 103.584 -126.793 107.798C-136.401 109.905 -143.545 112.167 -148.282 113.901C-150.651 114.767 -152.418 115.502 -153.59 116.018C-154.177 116.277 -154.614 116.48 -154.904 116.619C-154.966 116.649 -155.022 116.675 -155.07 116.699C-155.135 116.731 -155.188 116.757 -155.229 116.777C-155.264 116.795 -155.291 116.808 -155.308 116.817L-155.327 116.826L-155.331 116.829ZM-157.982 123.093C-157.871 123.309 -157.813 123.42 -157.784 123.477C-157.753 123.537 -157.752 123.537 -157.752 123.537L-157.748 123.535L-157.729 123.525C-157.711 123.516 -157.685 123.503 -157.649 123.485C-157.578 123.45 -157.47 123.397 -157.325 123.327C-157.035 123.189 -156.597 122.985 -156.011 122.726C-154.838 122.21 -153.071 121.476 -150.703 120.609C-145.966 118.876 -138.822 116.613 -129.213 114.506C-109.996 110.292 -80.9179 106.699 -41.5126 109.206C37.2972 114.218 157.431 143.628 322.599 241.287C487.875 339.009 608.159 368.481 687.156 373.505C726.654 376.017 755.826 372.417 775.135 368.183C784.788 366.066 791.975 363.791 796.754 362.043C799.143 361.168 800.93 360.426 802.121 359.901C802.717 359.639 803.164 359.43 803.464 359.287C803.555 359.243 803.633 359.206 803.697 359.174C803.737 359.155 803.772 359.137 803.802 359.123L803.853 359.097L803.888 359.08L803.91 359.068L803.916 359.065C803.917 359.065 803.917 359.065 803.908 359.045C803.89 359.009 803.838 358.907 803.689 358.619C803.46 358.175 803.46 358.175 803.459 358.176L803.455 358.178L803.436 358.187C803.419 358.196 803.392 358.21 803.357 358.227C803.285 358.263 803.177 358.316 803.032 358.385C802.903 358.447 802.744 358.522 802.556 358.609C802.322 358.716 802.043 358.843 801.718 358.986C800.546 359.502 798.779 360.237 796.41 361.103C791.673 362.837 784.529 365.099 774.92 367.206C755.704 371.42 726.625 375.013 687.22 372.507C608.41 367.495 488.277 338.085 323.108 240.426C157.833 142.704 37.548 113.232 -41.4491 108.208C-80.9473 105.696 -110.119 109.296 -129.427 113.53C-139.081 115.646 -146.268 117.922 -151.046 119.67C-153.436 120.544 -155.222 121.286 -156.414 121.811C-157.01 122.074 -157.457 122.282 -157.756 122.425C-157.906 122.497 -158.019 122.552 -158.095 122.59L-158.147 122.616L-158.181 122.633L-158.203 122.644L-158.209 122.647C-158.211 122.648 -158.212 122.649 -157.982 123.093ZM-160.172 130.245C-160.173 130.245 -160.173 130.245 -160.403 129.801C-160.632 129.357 -160.631 129.356 -160.629 129.355L-160.623 129.352L-160.601 129.341C-160.582 129.331 -160.553 129.317 -160.515 129.298C-160.439 129.26 -160.326 129.205 -160.177 129.133C-159.878 128.99 -159.43 128.782 -158.835 128.52C-157.643 127.995 -155.856 127.252 -153.467 126.378C-148.689 124.63 -141.502 122.355 -131.848 120.238C-112.54 116.004 -83.3677 112.404 -43.8695 114.916C35.1276 119.94 155.412 149.412 320.688 247.134C485.856 344.793 605.99 374.203 684.799 379.215C724.205 381.721 753.283 378.128 772.5 373.914C782.109 371.807 789.252 369.545 793.99 367.812C796.358 366.945 798.125 366.211 799.298 365.694C799.884 365.436 800.322 365.232 800.612 365.093L800.713 365.045L800.757 365.023C800.832 364.987 800.891 364.958 800.936 364.935C800.972 364.918 800.998 364.904 801.015 364.896L801.034 364.886L801.039 364.884C801.039 364.884 801.039 364.884 801.039 364.884C801.039 364.885 801.04 364.886 801.041 364.888L801.047 364.898C801.057 364.918 801.083 364.967 801.142 365.082L801.269 365.328L801.361 365.507L801.438 365.657C801.465 365.709 801.479 365.737 801.487 365.753C801.497 365.773 801.496 365.773 801.496 365.773L801.49 365.776L801.467 365.788C801.448 365.798 801.419 365.812 801.381 365.831C801.338 365.852 801.283 365.88 801.216 365.912C801.165 365.937 801.108 365.965 801.043 365.995C800.744 366.139 800.297 366.347 799.701 366.609C798.509 367.134 796.722 367.877 794.333 368.751C789.555 370.499 782.368 372.774 772.714 374.891C753.406 379.125 724.234 382.725 684.736 380.213C605.739 375.189 485.454 345.717 320.179 247.995C155.01 150.336 34.8767 120.926 -43.933 115.914C-83.3383 113.408 -112.417 117.001 -131.634 121.215C-141.242 123.321 -148.386 125.584 -153.123 127.317C-155.492 128.184 -157.259 128.918 -158.431 129.435C-159.018 129.693 -159.455 129.897 -159.745 130.035C-159.89 130.105 -159.999 130.158 -160.07 130.193L-160.119 130.218L-160.149 130.233L-160.168 130.243L-160.172 130.245ZM-162.823 136.509C-162.594 136.954 -162.594 136.954 -162.593 136.953L-162.589 136.951L-162.57 136.941C-162.552 136.933 -162.526 136.919 -162.49 136.902C-162.419 136.866 -162.311 136.813 -162.166 136.744C-161.876 136.605 -161.438 136.401 -160.852 136.143C-159.679 135.626 -157.912 134.892 -155.544 134.025C-150.807 132.292 -143.663 130.03 -134.054 127.923C-114.837 123.709 -85.7589 120.116 -46.3536 122.622C32.4562 127.634 152.59 157.044 317.758 254.703C483.034 352.425 603.318 381.897 682.315 386.921C721.813 389.433 750.985 385.833 770.294 381.599C779.947 379.482 787.134 377.207 791.913 375.459C794.302 374.585 796.089 373.842 797.28 373.317C797.876 373.055 798.323 372.847 798.623 372.704C798.772 372.632 798.885 372.577 798.961 372.539C798.999 372.52 799.027 372.506 799.047 372.496L799.069 372.485L799.075 372.481C799.076 372.481 799.076 372.481 799.067 372.461C799.049 372.425 798.997 372.324 798.848 372.036L798.678 371.706L798.633 371.619C798.619 371.592 798.618 371.592 798.618 371.592L798.614 371.594L798.595 371.604L798.561 371.621L798.516 371.644C798.444 371.679 798.336 371.732 798.191 371.802C797.901 371.94 797.463 372.144 796.877 372.402C795.705 372.919 793.938 373.653 791.569 374.52C786.832 376.253 779.688 378.515 770.079 380.622C750.863 384.836 721.784 388.429 682.379 385.923C603.569 380.911 483.436 351.501 318.267 253.842C152.992 156.12 32.707 126.648 -46.2901 121.624C-85.7883 119.112 -114.96 122.712 -134.268 126.946C-143.922 129.063 -151.109 131.338 -155.887 133.086C-158.277 133.96 -160.063 134.703 -161.255 135.228C-161.851 135.49 -162.298 135.698 -162.597 135.842C-162.747 135.913 -162.86 135.968 -162.936 136.006C-162.973 136.025 -163.002 136.039 -163.022 136.049L-163.044 136.061L-163.05 136.064C-163.052 136.064 -163.053 136.065 -162.823 136.509ZM-165.013 143.662C-165.014 143.662 -165.014 143.662 -165.244 143.218C-165.473 142.773 -165.472 142.773 -165.47 142.772L-165.464 142.769L-165.442 142.758C-165.423 142.748 -165.394 142.733 -165.356 142.714C-165.28 142.677 -165.168 142.621 -165.018 142.55C-164.719 142.407 -164.272 142.199 -163.676 141.936C-162.484 141.411 -160.697 140.669 -158.308 139.795C-153.53 138.046 -146.343 135.771 -136.689 133.654C-117.381 129.421 -88.2087 125.82 -48.7106 128.332C30.2865 133.357 150.571 162.828 315.847 260.551C481.015 358.21 601.149 387.619 679.958 392.632C719.364 395.138 748.442 391.545 767.659 387.331C777.268 385.224 784.411 382.962 789.149 381.228C791.517 380.362 793.284 379.627 794.457 379.111C795.043 378.852 795.481 378.649 795.771 378.51C795.916 378.441 796.024 378.388 796.095 378.352L796.126 378.337L796.174 378.312L796.193 378.303L796.198 378.3C796.198 378.3 796.198 378.3 796.231 378.364C796.261 378.422 796.319 378.532 796.428 378.744C796.577 379.032 796.628 379.134 796.646 379.17C796.656 379.189 796.655 379.19 796.655 379.19L796.649 379.193L796.626 379.204C796.607 379.214 796.578 379.229 796.54 379.248C796.464 379.285 796.352 379.341 796.202 379.412C795.903 379.555 795.456 379.763 794.86 380.026C793.668 380.551 791.881 381.293 789.492 382.167C784.714 383.916 777.527 386.191 767.873 388.308C748.565 392.542 719.393 396.142 679.895 393.63C600.898 388.605 480.613 359.134 315.338 261.411C150.169 163.752 30.0357 134.343 -48.774 129.33C-88.1793 126.824 -117.258 130.417 -136.475 134.631C-146.083 136.738 -153.227 139 -157.964 140.734C-160.333 141.6 -162.1 142.335 -163.272 142.851C-163.859 143.11 -164.296 143.313 -164.586 143.452C-164.731 143.521 -164.84 143.574 -164.911 143.61C-164.946 143.628 -164.973 143.641 -164.99 143.65L-165.009 143.659L-165.013 143.662ZM-167.437 150.365L-167.435 150.368C-167.434 150.37 -167.434 150.37 -167.434 150.37L-167.43 150.368L-167.411 150.358L-167.36 150.332L-167.331 150.318C-167.26 150.283 -167.152 150.23 -167.007 150.16C-166.717 150.022 -166.279 149.818 -165.693 149.56C-164.52 149.043 -162.753 148.309 -160.385 147.442C-155.648 145.709 -148.504 143.446 -138.895 141.339C-119.678 137.126 -90.5997 133.532 -51.1945 136.039C27.6153 141.051 147.749 170.461 312.917 268.12C478.193 365.842 598.477 395.314 677.474 400.338C716.973 402.85 746.145 399.25 765.453 395.016C775.106 392.899 782.294 390.624 787.072 388.876C789.461 388.002 791.248 387.259 792.439 386.734C793.035 386.472 793.482 386.263 793.782 386.12C793.87 386.078 793.946 386.041 794.009 386.01C794.052 385.989 794.089 385.971 794.12 385.956L794.153 385.939L794.206 385.913L794.228 385.901L794.234 385.898C794.234 385.898 794.234 385.898 794.234 385.898L794.234 385.896L794.233 385.894C794.232 385.892 794.23 385.887 794.226 385.878C794.208 385.842 794.156 385.741 794.008 385.453C793.778 385.008 793.778 385.008 793.777 385.009L793.773 385.011L793.754 385.021C793.737 385.029 793.71 385.043 793.675 385.06C793.603 385.096 793.495 385.149 793.35 385.218C793.06 385.357 792.623 385.561 792.036 385.819C790.864 386.335 789.097 387.07 786.728 387.937C781.991 389.67 774.847 391.932 765.239 394.039C746.022 398.253 716.943 401.846 677.538 399.34C598.728 394.328 478.595 364.918 313.426 267.259C148.151 169.537 27.8661 140.065 -51.131 135.041C-90.6292 132.529 -119.801 136.129 -139.109 140.363C-148.763 142.479 -155.95 144.755 -160.728 146.503C-163.117 147.377 -164.904 148.119 -166.096 148.644C-166.692 148.907 -167.139 149.115 -167.438 149.258C-167.588 149.33 -167.701 149.385 -167.776 149.423C-167.814 149.442 -167.843 149.456 -167.863 149.466L-167.885 149.477L-167.891 149.48C-167.892 149.481 -167.893 149.482 -167.664 149.926C-167.528 150.19 -167.472 150.297 -167.45 150.34L-167.437 150.365ZM-169.855 157.078C-169.855 157.078 -169.855 157.078 -170.085 156.634C-170.314 156.19 -170.313 156.189 -170.311 156.188L-170.305 156.185L-170.283 156.174C-170.264 156.164 -170.235 156.15 -170.197 156.131C-170.151 156.108 -170.093 156.079 -170.02 156.044L-169.937 156.004L-169.859 155.966C-169.56 155.823 -169.113 155.615 -168.517 155.353C-167.325 154.828 -165.538 154.085 -163.149 153.211C-158.371 151.463 -151.184 149.188 -141.53 147.071C-122.222 142.837 -93.0497 139.237 -53.5516 141.749C25.4455 146.773 145.73 176.245 311.006 273.967C476.174 371.626 596.307 401.036 675.117 406.048C714.523 408.554 743.601 404.961 762.818 400.747C772.427 398.64 779.57 396.378 784.308 394.645C786.676 393.778 788.443 393.044 789.616 392.527C790.202 392.269 790.64 392.065 790.93 391.926C791.075 391.857 791.183 391.804 791.254 391.769L791.301 391.745L791.333 391.729L791.352 391.719L791.357 391.717C791.357 391.717 791.358 391.716 791.587 392.161C791.736 392.449 791.787 392.55 791.805 392.586C791.815 392.606 791.814 392.606 791.814 392.606L791.808 392.609L791.785 392.621L791.754 392.637L791.699 392.664C791.623 392.702 791.511 392.757 791.361 392.828C791.062 392.972 790.615 393.18 790.019 393.442C788.827 393.967 787.04 394.71 784.651 395.584C779.873 397.332 772.686 399.607 763.032 401.724C743.724 405.958 714.552 409.558 675.054 407.046C596.057 402.022 475.772 372.55 310.497 274.828C145.328 177.169 25.1947 147.759 -53.6151 142.747C-93.0204 140.241 -122.099 143.834 -141.316 148.048C-150.924 150.155 -158.068 152.417 -162.805 154.15C-165.174 155.017 -166.941 155.751 -168.113 156.268C-168.7 156.526 -169.137 156.73 -169.428 156.869C-169.573 156.938 -169.681 156.991 -169.752 157.026L-169.796 157.048L-169.831 157.066L-169.85 157.076L-169.855 157.078ZM-172.505 163.343C-172.276 163.787 -172.276 163.787 -172.275 163.786L-172.271 163.784L-172.252 163.775C-172.234 163.766 -172.208 163.752 -172.172 163.735C-172.101 163.699 -171.993 163.646 -171.848 163.577C-171.558 163.438 -171.12 163.234 -170.534 162.976C-169.361 162.46 -167.594 161.725 -165.226 160.859C-160.489 159.125 -153.345 156.863 -143.736 154.756C-124.519 150.542 -95.4408 146.949 -56.0355 149.455C22.7742 154.468 142.908 183.877 308.076 281.536C473.352 379.258 593.636 408.73 672.633 413.754C712.131 416.266 741.304 412.666 760.612 408.433C770.265 406.316 777.452 404.041 782.231 402.292C784.62 401.418 786.407 400.676 787.598 400.151C788.194 399.888 788.641 399.68 788.941 399.537C789.09 399.465 789.203 399.41 789.279 399.372C789.317 399.354 789.345 399.339 789.365 399.329L789.387 399.318L789.393 399.315C789.394 399.314 789.394 399.314 789.385 399.295C789.367 399.259 789.315 399.157 789.166 398.869C788.937 398.425 788.937 398.425 788.936 398.425L788.932 398.428L788.913 398.437C788.896 398.446 788.869 398.459 788.834 398.477C788.762 398.512 788.654 398.565 788.509 398.635C788.219 398.773 787.782 398.977 787.195 399.236C786.023 399.752 784.256 400.487 781.887 401.353C777.15 403.086 770.006 405.349 760.397 407.456C741.181 411.67 712.102 415.263 672.697 412.756C593.887 407.744 473.754 378.334 308.585 280.675C143.31 182.953 23.0251 153.481 -55.972 148.457C-95.4702 145.945 -124.642 149.545 -143.95 153.779C-153.604 155.896 -160.791 158.171 -165.569 159.919C-167.958 160.794 -169.745 161.536 -170.937 162.061C-171.533 162.324 -171.98 162.532 -172.279 162.675C-172.429 162.746 -172.542 162.802 -172.617 162.839C-172.655 162.858 -172.684 162.873 -172.704 162.882L-172.726 162.894L-172.732 162.897C-172.733 162.898 -172.734 162.898 -172.505 163.343ZM-174.695 170.494C-174.696 170.495 -174.696 170.495 -174.926 170.051C-175.155 169.606 -175.154 169.606 -175.152 169.605L-175.146 169.602L-175.124 169.59L-175.089 169.573L-175.038 169.547L-174.961 169.509L-174.901 169.48C-174.844 169.452 -174.777 169.42 -174.7 169.383C-174.4 169.24 -173.953 169.031 -173.357 168.769C-172.166 168.244 -170.379 167.502 -167.99 166.627C-163.212 164.879 -156.025 162.604 -146.371 160.487C-127.063 156.253 -97.8906 152.653 -58.3925 155.165C20.6047 160.189 140.889 189.661 306.165 287.383C471.333 385.042 591.467 414.452 670.276 419.464C709.682 421.971 738.76 418.378 757.977 414.164C767.586 412.057 774.73 409.794 779.467 408.061C781.835 407.194 783.602 406.46 784.775 405.944C785.361 405.685 785.799 405.481 786.089 405.343C786.234 405.273 786.342 405.22 786.413 405.185C786.449 405.167 786.475 405.154 786.493 405.145L786.512 405.135L786.516 405.133C786.516 405.133 786.516 405.133 786.538 405.174C786.563 405.224 786.62 405.334 786.746 405.577C786.819 405.718 786.868 405.814 786.902 405.88C786.937 405.949 786.955 405.984 786.964 406.003C786.974 406.022 786.973 406.022 786.973 406.023L786.967 406.026L786.944 406.037C786.925 406.047 786.896 406.062 786.858 406.08C786.808 406.105 786.742 406.138 786.659 406.178C786.617 406.199 786.571 406.221 786.52 406.245C786.221 406.388 785.774 406.596 785.178 406.859C783.986 407.384 782.199 408.126 779.81 409C775.032 410.749 767.845 413.024 758.191 415.141C738.883 419.374 709.711 422.974 670.213 420.462C591.216 415.438 470.931 385.966 305.656 288.244C140.487 190.585 20.3538 161.175 -58.4559 156.163C-97.8612 153.657 -126.94 157.25 -146.157 161.464C-155.765 163.571 -162.909 165.833 -167.646 167.567C-170.015 168.433 -171.782 169.168 -172.954 169.684C-173.541 169.942 -173.978 170.146 -174.268 170.285C-174.413 170.354 -174.521 170.407 -174.593 170.443C-174.628 170.46 -174.655 170.474 -174.672 170.483L-174.691 170.492L-174.695 170.494ZM-177.346 176.759C-177.117 177.203 -177.117 177.203 -177.116 177.203L-177.112 177.2L-177.093 177.191C-177.075 177.182 -177.049 177.169 -177.013 177.151C-176.942 177.116 -176.834 177.062 -176.689 176.993C-176.399 176.854 -175.961 176.651 -175.375 176.392C-174.202 175.876 -172.435 175.141 -170.067 174.275C-165.33 172.542 -158.186 170.279 -148.577 168.172C-129.36 163.958 -100.282 160.365 -60.8765 162.871C17.9332 167.884 138.067 197.293 303.235 294.952C468.511 392.675 588.795 422.146 667.792 427.171C707.291 429.683 736.463 426.083 755.771 421.849C765.424 419.732 772.611 417.457 777.39 415.708C779.779 414.834 781.566 414.092 782.757 413.567C783.353 413.304 783.8 413.096 784.1 412.953C784.146 412.931 784.188 412.911 784.227 412.892L784.319 412.847L784.39 412.812L784.438 412.789C784.476 412.77 784.504 412.755 784.524 412.745L784.546 412.734L784.552 412.731C784.553 412.731 784.553 412.73 784.544 412.711C784.526 412.675 784.474 412.573 784.325 412.285C784.096 411.841 784.096 411.841 784.095 411.841L784.091 411.844L784.072 411.853L784.047 411.866L783.993 411.893C783.921 411.929 783.813 411.982 783.668 412.051C783.378 412.19 782.941 412.393 782.354 412.652C781.182 413.168 779.415 413.903 777.046 414.769C772.309 416.503 765.165 418.765 755.556 420.872C736.34 425.086 707.261 428.679 667.856 426.173C589.046 421.16 468.913 391.751 303.744 294.092C138.469 196.369 18.184 166.898 -60.813 161.873C-100.311 159.361 -129.483 162.962 -148.791 167.195C-158.445 169.312 -165.632 171.587 -170.41 173.336C-172.8 174.21 -174.586 174.952 -175.778 175.477C-176.374 175.74 -176.821 175.948 -177.12 176.091C-177.27 176.163 -177.383 176.218 -177.458 176.255C-177.496 176.274 -177.525 176.289 -177.545 176.299L-177.567 176.31L-177.573 176.313C-177.574 176.314 -177.575 176.314 -177.346 176.759ZM-179.536 183.911C-179.537 183.911 -179.537 183.911 -179.767 183.467C-179.996 183.023 -179.995 183.022 -179.993 183.022L-179.987 183.018L-179.965 183.007C-179.946 182.997 -179.917 182.983 -179.879 182.964C-179.803 182.926 -179.69 182.871 -179.541 182.799C-179.242 182.656 -178.794 182.448 -178.199 182.186C-177.007 181.661 -175.22 180.918 -172.831 180.044C-168.053 178.296 -160.866 176.021 -151.212 173.904C-131.904 169.67 -102.732 166.07 -63.2335 168.582C15.7636 173.606 136.048 203.078 301.324 300.8C466.492 398.459 586.626 427.869 665.435 432.881C704.841 435.387 733.919 431.794 753.136 427.58C762.745 425.473 769.889 423.211 774.626 421.478C776.994 420.611 778.761 419.877 779.934 419.36C780.52 419.102 780.958 418.898 781.248 418.759C781.393 418.69 781.501 418.637 781.572 418.602C781.608 418.584 781.634 418.571 781.652 418.562L781.67 418.552L781.675 418.55C781.676 418.55 781.676 418.549 781.905 418.994C781.975 419.13 782.024 419.225 782.058 419.29C782.095 419.363 782.114 419.4 782.123 419.419C782.133 419.439 782.132 419.439 782.132 419.439L782.126 419.442L782.103 419.454L782.07 419.47L782.017 419.497C781.942 419.535 781.829 419.59 781.679 419.662C781.38 419.805 780.933 420.013 780.337 420.275C779.145 420.8 777.358 421.543 774.969 422.417C770.191 424.165 763.004 426.44 753.35 428.557C734.042 432.791 704.87 436.391 665.372 433.879C586.375 428.855 466.09 399.383 300.815 301.661C135.646 204.002 15.5128 174.592 -63.297 169.58C-102.702 167.074 -131.781 170.667 -150.998 174.881C-160.606 176.988 -167.75 179.25 -172.487 180.983C-174.856 181.85 -176.623 182.584 -177.795 183.101C-178.382 183.359 -178.819 183.563 -179.109 183.702C-179.254 183.771 -179.362 183.824 -179.434 183.859C-179.469 183.877 -179.496 183.89 -179.513 183.899L-179.532 183.909L-179.536 183.911ZM-181.973 190.59C-181.963 190.609 -181.959 190.616 -181.958 190.618L-181.957 190.619C-181.957 190.619 -181.957 190.619 -181.957 190.619L-181.953 190.617L-181.934 190.607C-181.916 190.599 -181.89 190.585 -181.854 190.568C-181.783 190.532 -181.675 190.479 -181.53 190.41C-181.24 190.271 -180.802 190.067 -180.216 189.809C-179.043 189.292 -177.276 188.558 -174.908 187.691C-170.171 185.958 -163.027 183.696 -153.418 181.589C-134.201 177.375 -105.123 173.782 -65.7175 176.288C13.0922 181.3 133.226 210.71 298.394 308.369C463.67 406.091 583.954 435.563 662.951 440.587C702.449 443.099 731.622 439.499 750.93 435.265C760.583 433.148 767.77 430.873 772.549 429.125C774.938 428.251 776.725 427.509 777.916 426.983C778.512 426.721 778.959 426.513 779.259 426.37C779.408 426.298 779.521 426.243 779.597 426.205C779.635 426.186 779.663 426.172 779.683 426.162L779.705 426.151L779.711 426.148C779.712 426.147 779.712 426.147 779.703 426.128C779.694 426.11 779.677 426.076 779.644 426.012C779.61 425.946 779.56 425.848 779.484 425.702C779.255 425.258 779.255 425.258 779.254 425.258L779.25 425.26L779.231 425.27C779.214 425.279 779.187 425.292 779.152 425.31C779.08 425.345 778.972 425.398 778.827 425.468C778.537 425.606 778.1 425.81 777.513 426.068C776.341 426.585 774.574 427.319 772.205 428.186C767.468 429.919 760.324 432.182 750.715 434.289C731.499 438.502 702.42 442.095 663.015 439.589C584.205 434.577 464.072 405.167 298.903 307.508C133.628 209.786 13.343 180.314 -65.6541 175.29C-105.152 172.778 -134.324 176.378 -153.632 180.612C-163.286 182.729 -170.473 185.004 -175.251 186.752C-177.641 187.626 -179.427 188.369 -180.619 188.894C-181.215 189.156 -181.662 189.364 -181.961 189.508C-182.111 189.579 -182.224 189.634 -182.299 189.672L-182.353 189.699L-182.386 189.715L-182.408 189.727L-182.414 189.73C-182.416 189.731 -182.416 189.731 -182.187 190.175C-182.051 190.439 -181.996 190.546 -181.973 190.59ZM-184.377 197.327C-184.378 197.328 -184.378 197.328 -184.608 196.884C-184.837 196.439 -184.836 196.439 -184.834 196.438L-184.828 196.435L-184.806 196.423C-184.787 196.414 -184.758 196.399 -184.72 196.38C-184.644 196.343 -184.531 196.287 -184.382 196.216C-184.083 196.073 -183.635 195.865 -183.04 195.602C-181.848 195.077 -180.061 194.335 -177.672 193.46C-172.894 191.712 -165.707 189.437 -156.053 187.32C-136.745 183.086 -107.573 179.486 -68.0745 181.998C10.9226 187.022 131.207 216.494 296.483 314.216C461.651 411.875 581.785 441.285 660.594 446.297C700 448.804 729.078 445.211 748.295 440.997C757.904 438.89 765.047 436.627 769.785 434.894C772.153 434.028 773.92 433.293 775.093 432.777C775.679 432.518 776.117 432.315 776.407 432.176C776.552 432.106 776.66 432.053 776.731 432.018L776.78 431.993L776.811 431.978L776.83 431.969L776.834 431.966C776.835 431.966 776.835 431.966 777.064 432.41C777.134 432.546 777.182 432.64 777.216 432.705C777.238 432.748 777.254 432.779 777.265 432.801L777.282 432.836L777.287 432.846C777.289 432.85 777.29 432.852 777.291 432.854L777.291 432.855C777.291 432.856 777.291 432.856 777.291 432.856L777.285 432.859L777.262 432.87L777.249 432.877L777.226 432.889L777.176 432.913C777.101 432.951 776.988 433.006 776.838 433.078C776.539 433.221 776.092 433.429 775.496 433.692C774.304 434.217 772.517 434.959 770.128 435.833C765.35 437.582 758.163 439.857 748.509 441.974C729.201 446.207 700.029 449.807 660.531 447.295C581.534 442.271 461.249 412.799 295.974 315.077C130.805 217.418 10.6718 188.009 -68.138 182.996C-107.543 180.49 -136.622 184.083 -155.839 188.297C-165.447 190.404 -172.591 192.666 -177.328 194.4C-179.697 195.266 -181.464 196.001 -182.636 196.517C-183.223 196.775 -183.66 196.979 -183.95 197.118C-184.015 197.149 -184.072 197.176 -184.122 197.2L-184.174 197.226L-184.222 197.25L-184.275 197.276L-184.345 197.311L-184.354 197.316L-184.373 197.325L-184.377 197.327ZM-187.028 203.592C-186.799 204.036 -186.799 204.036 -186.798 204.036L-186.794 204.033L-186.775 204.024C-186.757 204.015 -186.731 204.002 -186.695 203.984C-186.624 203.949 -186.516 203.896 -186.371 203.826C-186.081 203.687 -185.643 203.484 -185.057 203.225C-183.884 202.709 -182.117 201.974 -179.749 201.108C-175.012 199.375 -167.868 197.112 -158.259 195.005C-139.042 190.791 -109.964 187.198 -70.5584 189.705C8.25135 194.717 128.385 224.127 293.553 321.785C458.829 419.508 579.113 448.98 658.111 454.004C697.609 456.516 726.781 452.916 746.089 448.682C755.743 446.565 762.93 444.29 767.708 442.541C770.097 441.667 771.884 440.925 773.076 440.4C773.312 440.296 773.525 440.2 773.715 440.114C773.846 440.054 773.967 439.998 774.076 439.947C774.206 439.887 774.32 439.833 774.418 439.786C774.567 439.715 774.68 439.659 774.756 439.622L774.809 439.595L774.842 439.578L774.864 439.567L774.87 439.564C774.871 439.564 774.871 439.563 774.862 439.544C774.844 439.508 774.792 439.406 774.644 439.118C774.414 438.674 774.414 438.674 774.413 438.675L774.409 438.677L774.39 438.686C774.373 438.695 774.346 438.708 774.311 438.726C774.239 438.762 774.131 438.815 773.986 438.884C773.835 438.956 773.643 439.047 773.411 439.153C773.199 439.25 772.953 439.361 772.672 439.485C771.5 440.001 769.733 440.736 767.364 441.602C762.627 443.336 755.483 445.598 745.875 447.705C726.658 451.919 697.579 455.512 658.174 453.006C579.364 447.993 459.231 418.584 294.062 320.925C128.787 223.203 8.50219 193.731 -70.4949 188.707C-109.993 186.194 -139.165 189.795 -158.473 194.028C-168.127 196.145 -175.314 198.42 -180.092 200.169C-182.481 201.043 -184.268 201.785 -185.46 202.31C-186.056 202.573 -186.503 202.781 -186.802 202.924C-186.952 202.996 -187.065 203.051 -187.14 203.089C-187.178 203.107 -187.207 203.122 -187.226 203.132L-187.249 203.143L-187.255 203.146C-187.256 203.147 -187.257 203.147 -187.028 203.592ZM-189.218 210.744C-189.219 210.744 -189.219 210.745 -189.449 210.3C-189.678 209.856 -189.677 209.855 -189.675 209.855L-189.669 209.852L-189.647 209.84C-189.628 209.83 -189.599 209.816 -189.561 209.797C-189.485 209.759 -189.372 209.704 -189.223 209.632C-188.924 209.489 -188.476 209.281 -187.881 209.019C-186.689 208.494 -184.902 207.751 -182.513 206.877C-177.735 205.129 -170.548 202.854 -160.894 200.737C-141.586 196.503 -112.414 192.903 -72.9155 195.415C6.08161 200.439 126.366 229.911 291.642 327.633C456.81 425.292 576.944 454.702 655.753 459.714C695.159 462.22 724.237 458.627 743.454 454.413C753.063 452.306 760.206 450.044 764.944 448.311C767.312 447.444 769.079 446.71 770.252 446.193C770.838 445.935 771.276 445.731 771.566 445.592C771.711 445.523 771.819 445.47 771.89 445.435C771.926 445.417 771.952 445.404 771.969 445.395L771.988 445.385L771.993 445.383C771.993 445.383 771.993 445.383 771.995 445.387C771.997 445.391 772.001 445.398 772.01 445.414C772.033 445.459 772.089 445.567 772.223 445.827L772.347 446.067L772.395 446.161L772.424 446.218L772.441 446.252C772.451 446.272 772.45 446.272 772.45 446.272L772.444 446.276L772.421 446.287C772.402 446.297 772.373 446.311 772.335 446.33C772.304 446.346 772.266 446.365 772.221 446.386C772.187 446.403 772.15 446.421 772.109 446.441C772.074 446.458 772.037 446.475 771.997 446.495C771.698 446.638 771.251 446.846 770.655 447.108C769.463 447.633 767.676 448.376 765.287 449.25C760.509 450.998 753.322 453.273 743.668 455.39C724.36 459.624 695.188 463.224 655.69 460.712C576.693 455.688 456.408 426.216 291.133 328.494C125.964 230.835 5.83076 201.425 -72.979 196.413C-112.384 193.907 -141.463 197.5 -160.68 201.714C-170.288 203.821 -177.432 206.083 -182.169 207.816C-184.538 208.683 -186.305 209.417 -187.477 209.934C-188.064 210.192 -188.501 210.396 -188.791 210.535C-188.936 210.604 -189.045 210.657 -189.116 210.692L-189.164 210.716L-189.195 210.732L-189.214 210.742L-189.218 210.744ZM-191.869 217.008C-191.64 217.452 -191.64 217.452 -191.639 217.452L-191.635 217.45L-191.616 217.44C-191.598 217.431 -191.572 217.418 -191.536 217.4C-191.465 217.365 -191.357 217.312 -191.212 217.243C-190.922 217.104 -190.484 216.9 -189.898 216.642C-188.725 216.125 -186.958 215.391 -184.59 214.524C-179.853 212.791 -172.709 210.529 -163.1 208.422C-143.883 204.208 -114.805 200.615 -75.3994 203.121C3.41034 208.133 123.544 237.543 288.712 335.202C453.988 432.924 574.272 462.396 653.269 467.42C692.768 469.932 721.94 466.332 741.248 462.098C750.902 459.981 758.089 457.706 762.867 455.958C765.256 455.084 767.043 454.341 768.234 453.816C768.83 453.554 769.277 453.346 769.577 453.203C769.726 453.131 769.839 453.076 769.915 453.038C769.953 453.019 769.981 453.005 770.001 452.995L770.023 452.983L770.029 452.98C770.03 452.98 770.03 452.98 770.028 452.977C770.027 452.974 770.025 452.969 770.021 452.96C770.013 452.944 769.997 452.914 769.969 452.858C769.935 452.792 769.883 452.691 769.803 452.535C769.677 452.291 769.62 452.181 769.594 452.131L769.585 452.114L769.576 452.096C769.574 452.094 769.573 452.092 769.573 452.092C769.572 452.091 769.572 452.091 769.572 452.091L769.568 452.093L769.549 452.103C769.532 452.112 769.505 452.125 769.47 452.143L769.373 452.19C769.312 452.22 769.236 452.257 769.145 452.3C768.855 452.439 768.418 452.643 767.831 452.901C766.659 453.418 764.892 454.152 762.523 455.019C757.786 456.752 750.642 459.014 741.034 461.121C721.817 465.335 692.738 468.928 653.333 466.422C574.523 461.41 454.39 432 289.221 334.341C123.946 236.619 3.66118 207.147 -75.336 202.123C-114.834 199.611 -144.006 203.211 -163.314 207.445C-172.968 209.562 -180.155 211.837 -184.933 213.585C-187.322 214.459 -189.109 215.202 -190.301 215.727C-190.897 215.989 -191.344 216.197 -191.643 216.34C-191.793 216.412 -191.906 216.467 -191.981 216.505L-192.046 216.538L-192.067 216.548L-192.09 216.559L-192.096 216.563C-192.097 216.563 -192.098 216.564 -191.869 217.008ZM-194.109 224.066L-194.29 223.717C-194.519 223.272 -194.518 223.272 -194.516 223.271L-194.51 223.268L-194.488 223.257C-194.468 223.247 -194.44 223.232 -194.402 223.213C-194.363 223.194 -194.315 223.17 -194.257 223.142C-194.202 223.115 -194.137 223.084 -194.064 223.049C-193.764 222.906 -193.317 222.698 -192.721 222.435C-191.53 221.91 -189.743 221.168 -187.354 220.294C-182.576 218.545 -175.388 216.27 -165.735 214.153C-146.427 209.919 -117.255 206.319 -77.7564 208.831C1.24073 213.855 121.525 243.327 286.801 341.05C451.969 438.708 572.103 468.118 650.912 473.131C690.318 475.637 719.396 472.044 738.613 467.83C748.222 465.723 755.366 463.46 760.103 461.727C762.471 460.861 764.238 460.126 765.411 459.61C765.997 459.351 766.435 459.148 766.725 459.009C766.87 458.94 766.978 458.886 767.049 458.851C767.085 458.833 767.111 458.82 767.129 458.811L767.148 458.802L767.152 458.799C767.153 458.799 767.153 458.799 767.382 459.243C767.531 459.531 767.583 459.633 767.6 459.669C767.61 459.688 767.609 459.689 767.609 459.689L767.603 459.692L767.58 459.703C767.561 459.713 767.532 459.728 767.494 459.746C767.465 459.761 767.43 459.778 767.389 459.798C767.325 459.83 767.248 459.867 767.156 459.911C766.857 460.054 766.41 460.262 765.814 460.525C764.622 461.05 762.835 461.792 760.446 462.666C755.668 464.415 748.481 466.69 738.827 468.807C719.519 473.04 690.347 476.641 650.849 474.128C571.852 469.104 451.567 439.632 286.292 341.91C121.123 244.251 0.989887 214.842 -77.8199 209.829C-117.225 207.323 -146.304 210.916 -165.521 215.13C-175.129 217.237 -182.273 219.499 -187.01 221.233C-189.379 222.099 -191.146 222.834 -192.318 223.35C-192.905 223.608 -193.342 223.812 -193.632 223.951C-193.777 224.02 -193.885 224.073 -193.957 224.109C-193.992 224.127 -194.019 224.14 -194.036 224.149L-194.055 224.158L-194.059 224.16C-194.059 224.161 -194.06 224.161 -194.06 224.159L-194.065 224.151C-194.07 224.14 -194.083 224.117 -194.109 224.066ZM-196.71 230.425C-196.481 230.869 -196.481 230.869 -196.48 230.869L-196.476 230.866L-196.457 230.857C-196.439 230.848 -196.413 230.835 -196.377 230.817C-196.306 230.782 -196.198 230.729 -196.053 230.659C-195.763 230.521 -195.325 230.317 -194.739 230.058C-193.566 229.542 -191.799 228.807 -189.431 227.941C-184.694 226.208 -177.55 223.945 -167.941 221.838C-148.724 217.624 -119.646 214.031 -80.2405 216.538C-1.43071 221.55 118.703 250.96 283.871 348.619C449.147 446.341 569.431 475.813 648.428 480.837C687.927 483.349 717.099 479.749 736.407 475.515C746.06 473.398 753.248 471.123 758.026 469.374C760.415 468.5 762.202 467.758 763.393 467.233C763.989 466.97 764.436 466.762 764.736 466.619C764.885 466.548 764.998 466.492 765.074 466.455C765.112 466.436 765.14 466.421 765.16 466.412L765.182 466.4L765.188 466.397C765.188 466.397 765.189 466.397 765.188 466.396L765.188 466.394C765.186 466.391 765.184 466.386 765.18 466.377C765.162 466.341 765.11 466.239 764.962 465.951C764.732 465.507 764.732 465.507 764.731 465.508L764.727 465.51L764.708 465.519C764.691 465.528 764.664 465.541 764.629 465.559C764.578 465.584 764.508 465.619 764.42 465.661L764.304 465.717C764.014 465.856 763.577 466.06 762.99 466.318C761.818 466.834 760.051 467.569 757.682 468.435C752.945 470.169 745.801 472.431 736.193 474.538C716.976 478.752 687.897 482.345 648.492 479.839C569.682 474.826 449.549 445.417 284.38 347.758C119.105 250.036 -1.17987 220.564 -80.177 215.54C-119.675 213.028 -148.847 216.628 -168.155 220.861C-177.809 222.978 -184.996 225.253 -189.774 227.002C-192.163 227.876 -193.95 228.618 -195.142 229.143C-195.738 229.406 -196.185 229.614 -196.484 229.757C-196.634 229.829 -196.747 229.884 -196.822 229.922L-196.88 229.951L-196.909 229.965L-196.931 229.976L-196.937 229.979C-196.938 229.98 -196.939 229.981 -196.71 230.425ZM-198.9 237.577C-198.901 237.577 -198.901 237.577 -199.131 237.133C-199.36 236.689 -199.359 236.688 -199.357 236.687L-199.351 236.684L-199.329 236.673C-199.309 236.663 -199.281 236.649 -199.243 236.63C-199.167 236.592 -199.054 236.537 -198.905 236.465C-198.605 236.322 -198.158 236.114 -197.562 235.851C-196.371 235.326 -194.584 234.584 -192.195 233.71C-187.417 231.962 -180.23 229.687 -170.576 227.57C-151.268 223.336 -122.096 219.736 -82.5974 222.248C-3.60031 227.272 116.684 256.744 281.96 354.466C447.128 452.125 567.262 481.535 646.071 486.547C685.477 489.053 714.555 485.46 733.772 481.246C743.381 479.139 750.525 476.877 755.262 475.144C757.63 474.277 759.397 473.543 760.57 473.026C760.729 472.956 760.878 472.89 761.015 472.828C761.383 472.662 761.673 472.526 761.884 472.425C762.029 472.356 762.137 472.303 762.208 472.267C762.244 472.25 762.27 472.236 762.288 472.228L762.307 472.218L762.311 472.216C762.311 472.216 762.312 472.215 762.345 472.28L762.425 472.436L762.541 472.66C762.69 472.948 762.742 473.049 762.759 473.085C762.763 473.093 762.765 473.098 762.767 473.101C762.768 473.105 762.768 473.105 762.768 473.105L762.762 473.108L762.739 473.12L762.71 473.134L762.653 473.163C762.578 473.201 762.465 473.256 762.315 473.327C762.016 473.471 761.569 473.679 760.973 473.941C759.781 474.466 757.994 475.209 755.605 476.083C750.827 477.831 743.64 480.106 733.986 482.223C714.678 486.457 685.506 490.057 646.008 487.545C567.011 482.521 446.726 453.049 281.451 355.327C116.282 257.668 -3.85115 228.258 -82.6609 223.246C-122.066 220.74 -151.145 224.333 -170.362 228.546C-179.97 230.653 -187.114 232.916 -191.851 234.649C-194.22 235.516 -195.987 236.25 -197.159 236.767C-197.746 237.025 -198.183 237.229 -198.473 237.367C-198.618 237.437 -198.726 237.49 -198.798 237.525C-198.833 237.543 -198.86 237.556 -198.877 237.565L-198.896 237.575L-198.9 237.577ZM-201.551 243.841C-201.322 244.286 -201.322 244.285 -201.321 244.285L-201.317 244.283L-201.298 244.273C-201.28 244.264 -201.254 244.251 -201.218 244.233C-201.147 244.198 -201.039 244.145 -200.894 244.076C-200.604 243.937 -200.166 243.733 -199.58 243.475C-198.407 242.958 -196.64 242.224 -194.272 241.357C-189.535 239.624 -182.391 237.362 -172.782 235.255C-153.565 231.041 -124.487 227.448 -85.0815 229.954C-6.27173 234.966 113.862 264.376 279.03 362.035C444.306 459.757 564.59 489.229 643.587 494.253C683.086 496.765 712.258 493.165 731.566 488.931C741.219 486.814 748.406 484.539 753.185 482.791C755.574 481.917 757.361 481.174 758.552 480.649C759.148 480.387 759.595 480.179 759.895 480.036C760.044 479.964 760.157 479.909 760.233 479.871C760.271 479.852 760.299 479.838 760.319 479.828L760.341 479.817L760.347 479.813C760.348 479.813 760.348 479.813 760.346 479.809C760.345 479.806 760.342 479.801 760.339 479.793C760.321 479.757 760.269 479.656 760.12 479.368C759.997 479.129 759.94 479.019 759.914 478.968C759.891 478.924 759.891 478.924 759.89 478.924L759.886 478.926L759.867 478.936C759.85 478.945 759.823 478.958 759.788 478.976C759.716 479.011 759.608 479.064 759.463 479.133C759.385 479.171 759.296 479.213 759.197 479.259C759.12 479.296 759.036 479.335 758.945 479.376C758.72 479.48 758.455 479.6 758.149 479.734C756.977 480.251 755.21 480.985 752.841 481.852C748.104 483.585 740.96 485.847 731.351 487.954C712.135 492.168 683.056 495.761 643.651 493.255C564.841 488.243 444.708 458.833 279.539 361.174C114.264 263.452 -6.02088 233.98 -85.018 228.956C-124.516 226.444 -153.688 230.044 -172.996 234.278C-182.65 236.395 -189.837 238.67 -194.615 240.418C-197.004 241.292 -198.791 242.035 -199.983 242.56C-200.579 242.822 -201.026 243.03 -201.325 243.173C-201.475 243.245 -201.588 243.3 -201.663 243.338C-201.701 243.357 -201.73 243.371 -201.75 243.381L-201.772 243.393L-201.778 243.396C-201.779 243.396 -201.78 243.397 -201.551 243.841ZM-203.741 250.994C-203.742 250.994 -203.742 250.994 -203.785 250.912L-203.972 250.55C-204.201 250.105 -204.2 250.105 -204.198 250.104L-204.192 250.101L-204.17 250.09C-204.15 250.08 -204.122 250.065 -204.084 250.046C-204.051 250.03 -204.012 250.011 -203.966 249.988C-203.905 249.958 -203.831 249.923 -203.746 249.882C-203.446 249.739 -202.999 249.531 -202.403 249.268C-201.212 248.743 -199.425 248.001 -197.036 247.127C-192.258 245.378 -185.071 243.103 -175.417 240.986C-156.109 236.752 -126.937 233.152 -87.4385 235.664C-8.44132 240.689 111.843 270.16 277.119 367.883C442.287 465.542 562.421 494.951 641.23 499.964C680.636 502.47 709.714 498.877 728.931 494.663C738.54 492.556 745.684 490.293 750.421 488.56C752.789 487.694 754.556 486.959 755.729 486.443C756.315 486.184 756.753 485.981 757.043 485.842C757.188 485.773 757.296 485.719 757.367 485.684L757.415 485.66L757.447 485.644L757.466 485.635L757.47 485.632C757.471 485.632 757.471 485.632 757.7 486.076C757.849 486.364 757.901 486.466 757.918 486.502C757.928 486.521 757.927 486.522 757.927 486.522L757.921 486.525L757.898 486.536L757.885 486.543C757.866 486.553 757.842 486.565 757.812 486.579C757.737 486.617 757.624 486.672 757.474 486.744C757.175 486.887 756.728 487.095 756.132 487.358C754.94 487.883 753.153 488.625 750.764 489.499C745.986 491.248 738.799 493.523 729.145 495.64C709.837 499.873 680.665 503.474 641.167 500.962C562.17 495.937 441.885 466.466 276.61 368.743C111.441 271.084 -8.69216 241.675 -87.5019 236.662C-126.907 234.156 -155.986 237.749 -175.203 241.963C-184.811 244.07 -191.955 246.332 -196.692 248.066C-199.061 248.932 -200.828 249.667 -202 250.183C-202.587 250.442 -203.024 250.645 -203.314 250.784C-203.459 250.853 -203.567 250.906 -203.639 250.942C-203.674 250.96 -203.701 250.973 -203.718 250.982L-203.737 250.991L-203.741 250.994ZM-206.392 257.258C-206.163 257.702 -206.163 257.702 -206.162 257.702L-206.157 257.7L-206.138 257.69C-206.121 257.681 -206.095 257.668 -206.059 257.65C-205.988 257.615 -205.88 257.562 -205.735 257.492C-205.445 257.354 -205.007 257.15 -204.421 256.891C-203.248 256.375 -201.481 255.641 -199.113 254.774C-194.376 253.041 -187.232 250.778 -177.623 248.671C-158.406 244.457 -129.328 240.864 -89.9223 243.371C-11.1126 248.383 109.021 277.793 274.189 375.452C439.465 473.174 559.749 502.646 638.747 507.67C678.245 510.182 707.417 506.582 726.725 502.348C736.379 500.231 743.566 497.956 748.344 496.208C750.733 495.333 752.52 494.591 753.712 494.066C754.307 493.804 754.755 493.595 755.054 493.452C755.118 493.421 755.176 493.394 755.227 493.369C755.294 493.336 755.349 493.309 755.392 493.288L755.441 493.263L755.478 493.245L755.5 493.233L755.506 493.23C755.507 493.23 755.507 493.23 755.498 493.21L755.483 493.18C755.472 493.159 755.457 493.13 755.436 493.089L755.353 492.927L755.28 492.784C755.05 492.34 755.05 492.34 755.049 492.341L755.045 492.343L755.026 492.352L754.981 492.375L754.947 492.392C754.913 492.409 754.87 492.43 754.82 492.455C754.764 492.482 754.698 492.514 754.622 492.55C754.49 492.613 754.327 492.69 754.132 492.78C753.901 492.886 753.627 493.011 753.308 493.151C752.136 493.667 750.369 494.402 748 495.268C743.263 497.002 736.119 499.264 726.511 501.371C707.294 505.585 678.215 509.178 638.81 506.672C560 501.66 439.867 472.25 274.698 374.591C109.423 276.869 -10.8617 247.397 -89.8589 242.373C-129.357 239.861 -158.529 243.461 -177.837 247.695C-187.491 249.811 -194.678 252.086 -199.456 253.835C-201.845 254.709 -203.632 255.451 -204.824 255.976C-205.42 256.239 -205.867 256.447 -206.166 256.59C-206.316 256.662 -206.428 256.717 -206.504 256.755C-206.542 256.773 -206.571 256.788 -206.59 256.798L-206.613 256.809L-206.619 256.812C-206.62 256.813 -206.621 256.814 -206.392 257.258ZM-208.582 264.41C-208.583 264.41 -208.583 264.41 -208.813 263.966C-209.042 263.522 -209.041 263.521 -209.039 263.52L-209.033 263.517L-209.011 263.506C-208.991 263.496 -208.963 263.482 -208.925 263.463C-208.849 263.425 -208.736 263.37 -208.587 263.298C-208.288 263.155 -207.84 262.947 -207.245 262.685C-206.053 262.16 -204.266 261.417 -201.877 260.543C-197.099 258.795 -189.912 256.52 -180.258 254.403C-160.95 250.169 -131.778 246.569 -92.2795 249.081C-13.2823 254.105 107.002 283.577 272.278 381.299C437.446 478.958 557.58 508.368 636.389 513.38C675.795 515.886 704.873 512.293 724.09 508.079C733.699 505.972 740.843 503.71 745.58 501.977C747.948 501.11 749.715 500.376 750.888 499.859C751.474 499.601 751.912 499.397 752.202 499.258C752.347 499.189 752.455 499.136 752.526 499.1C752.562 499.083 752.588 499.069 752.606 499.061L752.625 499.051L752.629 499.049C752.629 499.049 752.629 499.049 752.63 499.05C752.631 499.052 752.634 499.058 752.644 499.077L752.663 499.113C752.693 499.171 752.75 499.282 752.859 499.493L752.965 499.697L753.014 499.793C753.05 499.864 753.068 499.9 753.077 499.918L753.081 499.925L753.084 499.932C753.085 499.936 753.086 499.937 753.086 499.938C753.086 499.938 753.086 499.938 753.086 499.938L753.08 499.941L753.057 499.953L753.025 499.969L752.971 499.996C752.896 500.034 752.783 500.089 752.633 500.16C752.334 500.304 751.887 500.512 751.291 500.774C750.099 501.299 748.312 502.042 745.923 502.916C741.145 504.664 733.958 506.939 724.304 509.056C704.996 513.29 675.824 516.89 636.326 514.378C557.329 509.354 437.044 479.882 271.769 382.16C106.6 284.501 -13.5332 255.091 -92.3429 250.079C-131.748 247.573 -160.827 251.166 -180.044 255.38C-189.652 257.486 -196.796 259.749 -201.533 261.482C-203.902 262.349 -205.669 263.083 -206.841 263.6C-207.428 263.858 -207.865 264.062 -208.155 264.2C-208.3 264.27 -208.408 264.323 -208.48 264.358C-208.515 264.376 -208.542 264.389 -208.559 264.398L-208.578 264.408L-208.582 264.41ZM-211.233 270.674C-211.004 271.119 -211.004 271.119 -211.003 271.118L-210.998 271.116L-210.98 271.106C-210.962 271.098 -210.936 271.084 -210.9 271.066C-210.829 271.031 -210.721 270.978 -210.576 270.909C-210.286 270.77 -209.848 270.566 -209.262 270.308C-208.089 269.791 -206.322 269.057 -203.954 268.19C-199.217 266.457 -192.073 264.195 -182.464 262.088C-163.247 257.874 -134.169 254.281 -94.7634 256.787C-15.9536 261.799 104.18 291.209 269.348 388.868C434.624 486.59 554.908 516.062 633.905 521.086C673.404 523.598 702.576 519.998 721.884 515.764C731.538 513.647 738.725 511.372 743.503 509.624C745.892 508.75 747.679 508.007 748.871 507.482C749.466 507.22 749.914 507.012 750.213 506.869C750.362 506.797 750.475 506.742 750.551 506.704C750.589 506.685 750.618 506.671 750.637 506.661L750.659 506.65L750.665 506.646C750.666 506.646 750.666 506.646 750.657 506.626C750.639 506.59 750.587 506.489 750.439 506.201C750.209 505.757 750.209 505.757 750.208 505.757L750.204 505.759L750.185 505.769C750.168 505.778 750.141 505.791 750.106 505.809C750.034 505.844 749.926 505.897 749.781 505.966C749.491 506.105 749.054 506.309 748.467 506.567C747.295 507.084 745.528 507.818 743.159 508.685C738.422 510.418 731.278 512.68 721.67 514.787C702.453 519.001 673.374 522.594 633.969 520.088C555.159 515.076 435.026 485.666 269.857 388.007C104.582 290.285 -15.7028 260.813 -94.6999 255.789C-134.198 253.277 -163.37 256.877 -182.678 261.111C-192.332 263.228 -199.519 265.503 -204.297 267.251C-206.686 268.125 -208.473 268.868 -209.665 269.393C-210.261 269.655 -210.708 269.863 -211.007 270.006C-211.157 270.078 -211.27 270.133 -211.345 270.171C-211.383 270.19 -211.412 270.204 -211.431 270.214L-211.454 270.226L-211.46 270.229C-211.461 270.229 -211.462 270.23 -211.233 270.674ZM-213.423 277.826C-213.424 277.827 -213.424 277.827 -213.653 277.382C-213.883 276.938 -213.882 276.938 -213.88 276.937L-213.874 276.934L-213.852 276.922C-213.832 276.913 -213.804 276.898 -213.766 276.879C-213.69 276.842 -213.577 276.786 -213.428 276.715C-213.128 276.572 -212.681 276.363 -212.085 276.101C-210.894 275.576 -209.107 274.834 -206.718 273.959C-201.939 272.211 -194.752 269.936 -185.099 267.819C-165.791 263.585 -136.618 259.985 -97.1203 262.497C-18.1232 267.521 102.161 296.993 267.437 394.715C432.605 492.374 552.739 521.784 631.549 526.796C670.954 529.302 700.032 525.709 719.249 521.496C728.858 519.389 736.002 517.126 740.739 515.393C743.107 514.526 744.874 513.792 746.047 513.275C746.383 513.127 746.671 512.997 746.909 512.887C747.087 512.805 747.237 512.734 747.361 512.675C747.506 512.605 747.614 512.552 747.685 512.517L747.739 512.49L747.765 512.477L747.784 512.467L747.788 512.465C747.789 512.465 747.789 512.465 748.018 512.909C748.167 513.197 748.219 513.299 748.236 513.335C748.246 513.354 748.245 513.354 748.245 513.355L748.239 513.358L748.217 513.369L748.195 513.38C748.178 513.389 748.156 513.399 748.131 513.412C748.089 513.433 748.037 513.459 747.973 513.49C747.921 513.515 747.86 513.544 747.792 513.577C747.493 513.72 747.046 513.928 746.45 514.191C745.258 514.716 743.472 515.458 741.082 516.332C736.304 518.08 729.117 520.356 719.463 522.472C700.155 526.706 670.983 530.306 631.485 527.794C552.488 522.77 432.203 493.298 266.928 395.576C101.759 297.917 -18.374 268.507 -97.1838 263.495C-136.589 260.989 -165.668 264.582 -184.884 268.796C-194.493 270.903 -201.637 273.165 -206.374 274.898C-208.743 275.765 -210.51 276.5 -211.682 277.016C-212.269 277.274 -212.706 277.478 -212.996 277.617C-213.141 277.686 -213.249 277.739 -213.321 277.775C-213.356 277.792 -213.383 277.806 -213.4 277.814L-213.419 277.824L-213.423 277.826ZM-216.074 284.091C-215.845 284.535 -215.845 284.535 -215.844 284.535L-215.84 284.532L-215.821 284.523C-215.803 284.514 -215.777 284.501 -215.741 284.483C-215.67 284.447 -215.562 284.394 -215.417 284.325C-215.127 284.186 -214.689 283.983 -214.103 283.724C-212.93 283.208 -211.163 282.473 -208.795 281.607C-204.058 279.873 -196.914 277.611 -187.305 275.504C-168.088 271.29 -139.01 267.697 -99.6044 270.203C-20.7946 275.216 99.3387 304.625 264.507 402.284C429.783 500.007 550.067 529.478 629.065 534.503C668.563 537.015 697.735 533.415 717.043 529.181C726.697 527.064 733.884 524.789 738.662 523.04C741.051 522.166 742.838 521.424 744.03 520.899C744.625 520.636 745.073 520.428 745.372 520.285C745.521 520.213 745.634 520.158 745.71 520.12C745.748 520.102 745.776 520.087 745.796 520.077L745.818 520.066L745.824 520.063C745.825 520.063 745.825 520.062 745.816 520.043C745.807 520.024 745.788 519.987 745.75 519.914L745.692 519.801L745.598 519.617C745.368 519.173 745.368 519.173 745.367 519.173L745.363 519.176L745.344 519.185C745.327 519.194 745.3 519.207 745.265 519.225C745.237 519.239 745.203 519.256 745.163 519.275C745.102 519.305 745.028 519.341 744.94 519.383C744.777 519.461 744.568 519.559 744.311 519.677C744.111 519.768 743.883 519.871 743.626 519.984C742.454 520.5 740.687 521.235 738.318 522.101C733.581 523.835 726.437 526.097 716.829 528.204C697.612 532.418 668.533 536.011 629.128 533.505C550.318 528.492 430.185 499.083 265.016 401.424C99.7407 303.701 -20.5438 274.23 -99.5409 269.205C-139.039 266.693 -168.211 270.293 -187.519 274.527C-197.173 276.644 -204.36 278.919 -209.138 280.668C-211.527 281.542 -213.314 282.284 -214.506 282.809C-215.102 283.072 -215.549 283.28 -215.848 283.423C-215.998 283.494 -216.111 283.55 -216.186 283.587C-216.224 283.606 -216.253 283.621 -216.272 283.631L-216.295 283.642L-216.301 283.645C-216.302 283.646 -216.303 283.646 -216.074 284.091ZM-218.264 291.243C-218.265 291.243 -218.265 291.243 -218.494 290.799C-218.724 290.355 -218.723 290.354 -218.721 290.353L-218.715 290.35L-218.693 290.339C-218.673 290.329 -218.645 290.315 -218.607 290.296C-218.531 290.258 -218.418 290.203 -218.269 290.131C-217.969 289.988 -217.522 289.78 -216.926 289.518C-215.735 288.993 -213.948 288.25 -211.559 287.376C-206.781 285.628 -199.593 283.353 -189.94 281.236C-170.632 277.002 -141.46 273.402 -101.961 275.914C-22.9642 280.938 97.3203 310.41 262.596 408.132C427.764 505.791 547.898 535.201 626.708 540.213C666.113 542.719 695.191 539.126 714.408 534.912C724.017 532.805 731.161 530.543 735.898 528.81C738.266 527.943 740.033 527.209 741.206 526.692C741.792 526.434 742.23 526.23 742.52 526.091C742.592 526.057 742.656 526.026 742.71 526C742.764 525.973 742.809 525.951 742.844 525.934C742.88 525.916 742.906 525.902 742.924 525.894L742.943 525.884L742.947 525.882C742.948 525.882 742.948 525.881 743.177 526.326L743.302 526.568C743.358 526.678 743.384 526.728 743.395 526.751C743.4 526.76 743.402 526.765 743.403 526.768C743.404 526.77 743.404 526.77 743.404 526.771C743.404 526.771 743.404 526.771 743.404 526.771L743.398 526.774L743.376 526.786L743.332 526.808L743.289 526.829C743.214 526.867 743.101 526.922 742.951 526.993C742.652 527.137 742.205 527.345 741.609 527.607C740.417 528.132 738.63 528.875 736.241 529.749C731.463 531.497 724.276 533.772 714.622 535.889C695.314 540.123 666.142 543.723 626.644 541.211C547.647 536.187 427.362 506.715 262.087 408.993C96.9183 311.334 -23.2151 281.924 -102.025 276.912C-141.43 274.406 -170.509 277.999 -189.725 282.213C-199.334 284.32 -206.478 286.582 -211.215 288.315C-213.584 289.182 -215.351 289.916 -216.523 290.433C-217.11 290.691 -217.547 290.895 -217.837 291.033C-217.982 291.103 -218.09 291.156 -218.162 291.191L-218.205 291.213L-218.241 291.231L-218.26 291.241L-218.264 291.243ZM-220.685 297.951C-220.686 297.952 -220.686 297.952 -220.915 297.507C-221.144 297.063 -221.143 297.062 -221.142 297.062L-221.136 297.059L-221.113 297.047C-221.094 297.037 -221.065 297.023 -221.027 297.004C-220.952 296.966 -220.839 296.911 -220.689 296.84C-220.39 296.696 -219.943 296.488 -219.347 296.226C-218.155 295.701 -216.368 294.958 -213.979 294.084C-209.201 292.336 -202.014 290.061 -192.36 287.944C-173.052 283.71 -143.88 280.11 -104.382 282.622C-25.3848 287.646 94.8997 317.118 260.175 414.84C425.344 512.499 545.477 541.909 624.287 546.921C663.692 549.427 692.771 545.834 711.988 541.62C721.596 539.514 728.74 537.251 733.477 535.518C735.846 534.651 737.613 533.917 738.785 533.4C739.372 533.142 739.809 532.938 740.099 532.8C740.244 532.73 740.352 532.677 740.424 532.642L740.466 532.621L740.503 532.602L740.522 532.592L740.526 532.59C740.527 532.59 740.527 532.59 740.757 533.034C740.905 533.322 740.957 533.423 740.975 533.459L740.982 533.474L740.982 533.476C740.984 533.479 740.984 533.479 740.983 533.48L740.977 533.483L740.955 533.494L740.909 533.517L740.869 533.537C740.831 533.556 740.785 533.579 740.73 533.606C740.673 533.633 740.607 533.665 740.531 533.702C740.231 533.845 739.784 534.053 739.188 534.315C737.997 534.84 736.21 535.583 733.821 536.457C729.043 538.205 721.856 540.48 712.202 542.597C692.894 546.831 663.722 550.431 624.223 547.919C545.226 542.895 424.942 513.423 259.666 415.701C94.4977 318.042 -25.6357 288.632 -104.445 283.62C-143.851 281.114 -172.929 284.707 -192.146 288.921C-201.755 291.028 -208.899 293.29 -213.636 295.023C-216.004 295.89 -217.771 296.624 -218.944 297.141C-219.53 297.399 -219.968 297.603 -220.258 297.742C-220.403 297.811 -220.511 297.864 -220.582 297.9C-220.618 297.917 -220.644 297.931 -220.662 297.939L-220.681 297.949L-220.685 297.951Z" fill="url(#paint0_radial_1_2893)"/>
<defs>
<radialGradient id="paint0_radial_1_2893" cx="0" cy="0" r="1" gradientUnits="userSpaceOnUse" gradientTransform="translate(272.861 225.189) rotate(49.3489) scale(414.18 464.562)">
<stop stop-color="#10B981" stop-opacity="0.46"/>
<stop offset="0.406987" stop-color="#D8E3D6" stop-opacity="0.28"/>
<stop offset="1" stop-color="#6C9820" stop-opacity="0.05"/>
</radialGradient>
</defs>
</svg>
