<svg width="1440" height="88" viewBox="0 0 1440 88" fill="none" xmlns="http://www.w3.org/2000/svg">
<rect x="-130" width="419" height="88" rx="8" fill="white" fill-opacity="0.24"/>
<path d="M16.7852 41.828C16.2817 42.3364 15.8962 42.95 15.656 43.6249C15.4158 44.3 15.3269 45.0199 15.3956 45.7333L15.3716 45.7093C15.4423 46.5492 15.3294 47.3943 15.041 48.1859C14.7525 48.9773 14.2955 49.6961 13.7018 50.2921C13.1079 50.888 12.3917 51.3468 11.6029 51.6361C10.8142 51.9256 9.97206 52.0389 9.13533 51.968L9.15924 51.992C8.1583 51.8985 7.15297 52.1171 6.28023 52.618C5.40762 53.1189 4.71012 53.8777 4.28299 54.7911C3.85585 55.7044 3.71967 56.7276 3.89318 57.7215C4.06683 58.7152 4.54153 59.6311 5.25271 60.3441C5.96389 61.0572 6.87689 61.5328 7.86721 61.706C8.85766 61.8793 9.87707 61.7417 10.7867 61.3123C11.6964 60.8827 12.4518 60.1821 12.9502 59.3059C13.4485 58.4296 13.6655 57.4205 13.5714 56.416L13.5967 56.44C13.526 55.6003 13.6388 54.7551 13.9272 53.9635C14.2157 53.172 14.6728 52.4532 15.2666 51.8572C15.8604 51.2613 16.5767 50.8025 17.3653 50.5132C18.1541 50.2237 18.9961 50.1104 19.833 50.1813L19.8077 50.1573C20.6253 50.2311 21.4484 50.0965 22.2005 49.7661C22.9525 49.4357 23.6093 48.9201 24.1099 48.2672C24.6105 47.6143 24.939 46.8449 25.0644 46.0308C25.1899 45.2165 25.1086 44.3837 24.828 43.6093C24.5474 42.8351 24.0766 42.1444 23.4592 41.6013C22.8418 41.0583 22.0978 40.6804 21.2961 40.5028C20.4945 40.3252 19.6611 40.3535 18.8732 40.5851C18.0854 40.8168 17.3686 41.2443 16.7892 41.828H16.7852Z" fill="white" fill-opacity="0.8"/>
<path d="M6.98437 48.8478L6.95913 48.8238C7.67031 48.8957 8.38854 48.8081 9.06199 48.5673C9.73531 48.3265 10.347 47.9386 10.8526 47.4316C11.3582 46.9245 11.7453 46.3109 11.9856 45.6353C12.2261 44.9597 12.3139 44.239 12.2429 43.5252L12.2681 43.5492C12.1974 42.7093 12.3103 41.8642 12.5986 41.0726C12.8871 40.2812 13.3442 39.5624 13.938 38.9664C14.5319 38.3705 15.2481 37.9117 16.0367 37.6224C16.8255 37.3328 17.6675 37.2196 18.5044 37.2905L18.4792 37.2665C19.4803 37.3609 20.4858 37.143 21.359 36.6426C22.2323 36.1423 22.9303 35.3838 23.3581 34.4706C23.7859 33.5575 23.9226 32.5341 23.7496 31.5401C23.5766 30.5461 23.1023 29.6298 22.3913 28.9163C21.6804 28.2028 20.7674 27.7268 19.7769 27.5531C18.7865 27.3795 17.7668 27.5167 16.8569 27.9461C15.9469 28.3754 15.1912 29.076 14.6926 29.9523C14.194 30.8286 13.9769 31.8379 14.071 32.8425L14.0471 32.8172C14.1179 33.657 14.0052 34.5023 13.7169 35.2939C13.4286 36.0855 12.9714 36.8044 12.3777 37.4005C11.7838 37.9964 11.0675 38.4552 10.2787 38.7445C9.48979 39.0338 8.64761 39.1469 7.81074 39.0758L7.83466 39.1012C7.12347 39.0293 6.40511 39.1169 5.73179 39.3577C5.05847 39.5984 4.4468 39.9864 3.94115 40.4934C3.43549 41.0005 3.04848 41.6141 2.80801 42.2897C2.56767 42.9653 2.47985 43.686 2.55093 44.3998L2.52701 44.3758C2.59743 45.2156 2.48437 46.0606 2.19594 46.8521C1.90737 47.6434 1.45034 48.3622 0.856602 48.9581C0.26281 49.554 -0.453344 50.0126 -1.24193 50.3022C-2.03052 50.5917 -2.87255 50.7052 -3.7093 50.6345L-3.68539 50.6585C-4.68644 50.5641 -5.69213 50.782 -6.56528 51.2824C-7.43841 51.7828 -8.13651 52.5412 -8.56433 53.4544C-8.99215 54.3676 -9.12889 55.3909 -8.95587 56.3849C-8.78285 57.3789 -8.3085 58.2952 -7.59754 59.0086C-6.88657 59.7222 -5.9736 60.1982 -4.98313 60.3718C-3.99267 60.5454 -2.97295 60.4082 -2.06305 59.9789C-1.15317 59.5496 -0.397384 58.849 0.101176 57.9728C0.599789 57.0964 0.816877 56.0872 0.722815 55.0825L0.748056 55.1065C0.677377 54.2666 0.790306 53.4216 1.07874 52.63C1.36704 51.8385 1.8242 51.1197 2.41794 50.5237C3.01181 49.9278 3.72804 49.469 4.51668 49.1797C5.30546 48.8902 6.1475 48.7769 6.98437 48.8478Z" fill="white" fill-opacity="0.8"/>
<path d="M-1.91972 46.1721C-1.41616 45.6638 -1.03064 45.0502 -0.790643 44.3751C-0.55065 43.7001 -0.462113 42.9801 -0.531359 42.2667L-0.50613 42.2907C-0.57681 41.4507 -0.463934 40.6053 -0.175355 39.8135C0.113224 39.0218 0.570559 38.3029 1.1647 37.7069C1.75883 37.1109 2.47533 36.6523 3.26437 36.363C4.05341 36.0737 4.89586 35.9608 5.73286 36.0321L5.70761 36.0081C6.70829 36.1022 7.71362 35.8842 8.58636 35.3839C9.4591 34.8836 10.1567 34.1253 10.5844 33.2124C11.0119 32.2995 11.1485 31.2765 10.9755 30.2829C10.8026 29.2892 10.3283 28.3733 9.6176 27.6601C8.90695 26.9468 7.99422 26.4709 7.00417 26.2973C6.01411 26.1237 4.9947 26.2608 4.08516 26.6899C3.17549 27.1189 2.41993 27.8192 1.92145 28.695C1.42284 29.5709 1.20561 30.5798 1.29941 31.5841L1.2755 31.5601C1.34618 32.3999 1.23325 33.245 0.944818 34.0366C0.656384 34.8281 0.199382 35.5469 -0.394437 36.1428C-0.988241 36.7388 -1.7045 37.1975 -2.49319 37.4869C-3.28189 37.7763 -4.12402 37.8897 -4.96082 37.8187L-4.9369 37.8427C-5.75455 37.7691 -6.57748 37.9039 -7.32942 38.2345C-8.08137 38.565 -8.73801 39.0807 -9.2385 39.7338C-9.73898 40.3867 -10.0671 41.1561 -10.1925 41.9702C-10.3179 42.7845 -10.2365 43.6173 -9.95577 44.3914C-9.67508 45.1657 -9.20419 45.8562 -8.58677 46.3991C-7.96934 46.9422 -7.22534 47.3199 -6.42371 47.4975C-5.62209 47.675 -4.78877 47.6466 -4.00096 47.415C-3.21317 47.1833 -2.49641 46.7558 -1.91707 46.1721H-1.91972Z" fill="white" fill-opacity="0.8"/>
<path d="M39.2354 32.8735H43.1813V52.1442H39.2354V32.8735Z" fill="white" fill-opacity="0.8"/>
<path d="M45.416 45.5455C45.4105 44.1607 45.8147 42.8052 46.5773 41.6511C47.3399 40.4969 48.4266 39.5959 49.6999 39.0621C50.9732 38.5283 52.3757 38.3857 53.7298 38.6525C55.0838 38.9193 56.3286 39.5833 57.3063 40.5607C58.284 41.5379 58.9506 42.7844 59.2219 44.1423C59.4932 45.5001 59.3568 46.9083 58.83 48.1883C58.3032 49.4681 57.4098 50.5625 56.2628 51.3324C55.1157 52.1024 53.767 52.5135 52.387 52.5135C51.4711 52.524 50.5622 52.3511 49.7135 52.0049C48.8648 51.6588 48.0934 51.1464 47.4444 50.4977C46.7953 49.8489 46.2817 49.0768 45.9334 48.2265C45.5851 47.3763 45.4092 46.4648 45.416 45.5455ZM55.4121 45.5455C55.3957 44.9485 55.2042 44.3697 54.8618 43.8813C54.5193 43.3931 54.041 43.0168 53.4868 42.7999C52.9324 42.5828 52.3267 42.5345 51.7451 42.6612C51.1636 42.7879 50.6322 43.0836 50.2173 43.5117C49.8025 43.9397 49.5224 44.4811 49.4126 45.068C49.3026 45.6548 49.3673 46.2612 49.5988 46.8113C49.8304 47.3615 50.2183 47.8308 50.7142 48.1608C51.2101 48.4908 51.792 48.6668 52.387 48.6668C52.7944 48.6777 53.1998 48.6037 53.5775 48.4496C53.9551 48.2955 54.2968 48.0645 54.581 47.7713C54.8652 47.478 55.0858 47.1288 55.2288 46.7457C55.3719 46.3627 55.4343 45.954 55.4121 45.5455Z" fill="white" fill-opacity="0.8"/>
<path d="M75.0843 38.9452V51.4786C75.0843 55.9132 71.638 57.7879 68.1398 57.7879C66.9083 57.8804 65.6749 57.6307 64.5753 57.0663C63.4758 56.5018 62.5523 55.6443 61.9062 54.5879L65.2728 52.6346C65.5443 53.1852 65.9771 53.6395 66.5129 53.9367C67.0488 54.2338 67.6624 54.3596 68.2714 54.2972C68.6606 54.3514 69.0571 54.317 69.4313 54.1966C69.8055 54.0762 70.148 53.8728 70.4334 53.6018C70.7187 53.3306 70.9397 52.9986 71.08 52.63C71.2201 52.2616 71.2759 51.8663 71.2434 51.4732V50.2666C70.7813 50.8339 70.1933 51.2847 69.5262 51.5827C68.8591 51.8807 68.1319 52.0176 67.4025 51.9826C65.6671 51.9276 64.0211 51.1972 62.8129 49.9458C61.6047 48.6944 60.9292 47.0203 60.9292 45.2779C60.9292 43.5355 61.6047 41.8614 62.8129 40.61C64.0211 39.3586 65.6671 38.6282 67.4025 38.5732C68.1319 38.5382 68.8591 38.6751 69.5262 38.9731C70.1933 39.2711 70.7813 39.7219 71.2434 40.2892V38.9426L75.0843 38.9452ZM71.2447 45.2799C71.2713 44.6418 71.1068 44.0102 70.7727 43.4666C70.4385 42.9228 69.9499 42.492 69.3697 42.2295C68.7895 41.9668 68.1444 41.8846 67.5171 41.9931C66.8899 42.1016 66.3095 42.396 65.8503 42.8386C65.3913 43.281 65.0747 43.8511 64.9412 44.4756C64.8078 45.1002 64.8636 45.7506 65.1017 46.343C65.3396 46.9354 65.7488 47.4428 66.2765 47.7999C66.8042 48.157 67.4264 48.3474 68.0628 48.3466C68.4774 48.3756 68.8934 48.3172 69.2841 48.1751C69.6749 48.033 70.0316 47.8102 70.3313 47.5214C70.631 47.2324 70.8673 46.8838 71.0246 46.4976C71.1819 46.1116 71.2569 45.6968 71.2447 45.2799Z" fill="white" fill-opacity="0.8"/>
<path d="M77.3189 45.5455C77.3135 44.1607 77.7175 42.8052 78.4802 41.6511C79.2428 40.4969 80.3296 39.5959 81.6029 39.0621C82.8762 38.5283 84.2787 38.3857 85.6327 38.6525C86.9868 38.9193 88.2316 39.5833 89.2093 40.5607C90.187 41.5379 90.8536 42.7844 91.1249 44.1423C91.3962 45.5001 91.2598 46.9083 90.733 48.1883C90.2062 49.4681 89.3128 50.5625 88.1658 51.3324C87.0187 52.1024 85.6699 52.5135 84.29 52.5135C83.374 52.524 82.465 52.3511 81.6165 52.0049C80.7678 51.6588 79.9964 51.1464 79.3474 50.4977C78.6983 49.8489 78.1846 49.0768 77.8364 48.2265C77.4881 47.3763 77.3122 46.4648 77.3189 45.5455ZM87.3151 45.5455C87.2986 44.9485 87.1072 44.3697 86.7648 43.8813C86.4223 43.3931 85.944 43.0168 85.3897 42.7999C84.8353 42.5828 84.2295 42.5345 83.6481 42.6612C83.0666 42.7879 82.5352 43.0836 82.1203 43.5117C81.7055 43.9397 81.4254 44.4811 81.3154 45.068C81.2054 45.6548 81.2702 46.2612 81.5018 46.8113C81.7334 47.3615 82.1213 47.8308 82.6172 48.1608C83.1131 48.4908 83.6949 48.6668 84.29 48.6668C84.6974 48.6777 85.1028 48.6037 85.4804 48.4496C85.8581 48.2955 86.1998 48.0645 86.484 47.7713C86.7681 47.478 86.9888 47.1288 87.1318 46.7457C87.2749 46.3627 87.3373 45.954 87.3151 45.5455Z" fill="white" fill-opacity="0.8"/>
<path d="M93.101 35.4082C93.101 34.9383 93.2399 34.4789 93.5 34.0882C93.7601 33.6975 94.13 33.3929 94.5626 33.2131C94.9952 33.0333 95.4712 32.9862 95.9305 33.0779C96.3897 33.1696 96.8116 33.3959 97.1427 33.7281C97.4738 34.0604 97.6992 34.4838 97.7906 34.9447C97.8819 35.4056 97.835 35.8833 97.6559 36.3175C97.4767 36.7516 97.1733 37.1227 96.7838 37.3838C96.3946 37.6449 95.9369 37.7842 95.4686 37.7842C94.8427 37.778 94.244 37.5257 93.8013 37.0814C93.3588 36.6372 93.1073 36.0364 93.101 35.4082ZM93.4996 38.9456H97.4468V52.1456H93.4943L93.4996 38.9456Z" fill="white" fill-opacity="0.8"/>
<path d="M114.484 45.5455C114.53 46.4179 114.403 47.2907 114.112 48.1138C113.82 48.9369 113.369 49.6939 112.785 50.3415C112.201 50.989 111.494 51.5143 110.707 51.8871C109.92 52.2598 109.067 52.4727 108.198 52.5135C107.466 52.5535 106.736 52.4298 106.058 52.1513C105.38 51.8726 104.773 51.4462 104.28 50.9029V57.4242H100.334V38.9455H104.28V40.1855C104.773 39.6426 105.38 39.2165 106.058 38.9382C106.736 38.6598 107.466 38.5362 108.198 38.5762C109.067 38.6169 109.92 38.8297 110.708 39.2025C111.495 39.5753 112.201 40.1006 112.786 40.7483C113.37 41.3961 113.821 42.1534 114.112 42.9767C114.404 43.7999 114.53 44.673 114.484 45.5455ZM110.539 45.5455C110.523 44.9278 110.327 44.3283 109.973 43.8221C109.62 43.3159 109.126 42.9255 108.553 42.6999C107.979 42.4742 107.353 42.4231 106.751 42.5533C106.149 42.6833 105.598 42.9886 105.168 43.431C104.739 43.8735 104.448 44.4333 104.334 45.0406C104.219 45.6478 104.286 46.2753 104.525 46.8447C104.764 47.4142 105.166 47.9001 105.679 48.2418C106.192 48.5834 106.794 48.7657 107.41 48.7655C107.833 48.7845 108.254 48.7134 108.648 48.5571C109.041 48.401 109.398 48.163 109.693 47.859C109.988 47.5549 110.216 47.1917 110.362 46.793C110.508 46.3943 110.568 45.9691 110.539 45.5455Z" fill="white" fill-opacity="0.8"/>
<path d="M126.661 48.1841C126.661 51.2201 124.032 52.5135 121.191 52.5135C120.043 52.6177 118.891 52.3743 117.883 51.8141C116.874 51.2541 116.057 50.4035 115.535 49.3721L118.954 47.4188C119.092 47.8955 119.389 48.3103 119.795 48.5936C120.201 48.8771 120.693 49.0121 121.186 48.9761C122.132 48.9761 122.606 48.6855 122.606 48.1588C122.606 46.7055 116.134 47.4721 116.134 42.9055C116.134 40.0268 118.555 38.5761 121.291 38.5761C122.319 38.5435 123.337 38.7883 124.239 39.2849C125.141 39.7817 125.894 40.5121 126.419 41.4001L123.052 43.2215C122.905 42.8757 122.659 42.5812 122.346 42.3747C122.032 42.1681 121.665 42.0588 121.291 42.0601C120.606 42.0601 120.185 42.3268 120.185 42.7988C120.191 44.3041 126.661 43.3001 126.661 48.1841Z" fill="white" fill-opacity="0.8"/>
<path d="M141.074 38.9453V52.1453H137.129V50.904C136.673 51.4517 136.095 51.8833 135.441 52.1633C134.788 52.4433 134.078 52.5637 133.369 52.5146C130.712 52.5146 128.453 50.6146 128.453 47.048V38.9453H132.399V46.468C132.366 46.7824 132.402 47.1002 132.504 47.3993C132.605 47.6985 132.771 47.9718 132.989 48.2002C133.207 48.4286 133.471 48.6066 133.765 48.722C134.057 48.8373 134.372 48.8872 134.687 48.868C136.133 48.868 137.133 48.024 137.133 46.1493V38.9493L141.074 38.9453Z" fill="white" fill-opacity="0.8"/>
<path d="M163.7 44.04V52.144H159.754V44.3826C159.754 43.0626 159.123 42.2186 157.861 42.2186C156.546 42.2186 155.808 43.1426 155.808 44.7V52.144H151.864V44.3826C151.864 43.0626 151.233 42.2186 149.969 42.2186C148.654 42.2186 147.918 43.1426 147.918 44.7V52.144H143.972V38.944H147.918V40.1573C148.327 39.619 148.864 39.1921 149.479 38.9157C150.095 38.6392 150.77 38.522 151.443 38.5746C152.118 38.5414 152.79 38.6845 153.394 38.9897C153.997 39.2948 154.512 39.7518 154.888 40.316C155.325 39.7257 155.904 39.2564 156.571 38.9518C157.238 38.6473 157.971 38.5176 158.702 38.5746C161.722 38.576 163.7 40.74 163.7 44.04Z" fill="white" fill-opacity="0.8"/>
<path d="M167.037 38.8641C168.654 38.8641 169.966 37.5484 169.966 35.9255C169.966 34.3025 168.654 32.9868 167.037 32.9868C165.42 32.9868 164.109 34.3025 164.109 35.9255C164.109 37.5484 165.42 38.8641 167.037 38.8641Z" fill="white" fill-opacity="0.8"/>
<rect x="297" width="419" height="88" rx="8" fill="white" fill-opacity="0.24"/>
<g clip-path="url(#clip0_1_2168)">
<path d="M474.25 51.4519H486.061V47.9397H478.448V34.7104H474.25V51.4519Z" fill="white" fill-opacity="0.8"/>
<path d="M493.059 49.1104C491.375 49.1104 490.498 47.6587 490.498 45.4811C490.498 43.3035 491.375 41.8284 493.059 41.8284C494.743 41.8284 495.644 43.3035 495.644 45.4811C495.644 47.6587 494.743 49.1104 493.059 49.1104ZM493.083 51.8265C496.996 51.8265 499.558 49.087 499.558 45.4811C499.558 41.8753 496.996 39.1357 493.083 39.1357C489.193 39.1357 486.584 41.8753 486.584 45.4811C486.584 49.087 489.193 51.8265 493.083 51.8265Z" fill="white" fill-opacity="0.8"/>
<path d="M506.332 55.5962C508.134 55.5962 509.723 55.1982 510.791 54.2616C511.763 53.3952 512.403 52.084 512.403 50.2811V39.4635H508.703V40.7513H508.656C507.944 39.7445 506.853 39.1123 505.241 39.1123C502.229 39.1123 500.141 41.5943 500.141 45.1065C500.141 48.7825 502.679 50.7962 505.407 50.7962C506.877 50.7962 507.802 50.2108 508.514 49.4147H508.609V50.6089C508.609 52.0606 507.921 52.9035 506.284 52.9035C505.003 52.9035 504.363 52.365 504.15 51.7328H500.402C500.782 54.2382 502.987 55.5962 506.332 55.5962ZM506.308 47.963C504.861 47.963 503.912 46.7923 503.912 44.9894C503.912 43.163 504.861 41.9923 506.308 41.9923C507.921 41.9923 508.775 43.3504 508.775 44.966C508.775 46.6518 507.992 47.963 506.308 47.963Z" fill="white" fill-opacity="0.8"/>
<path d="M520.011 49.1104C518.327 49.1104 517.45 47.6587 517.45 45.4811C517.45 43.3035 518.327 41.8284 520.011 41.8284C521.695 41.8284 522.596 43.3035 522.596 45.4811C522.596 47.6587 521.695 49.1104 520.011 49.1104ZM520.035 51.8265C523.948 51.8265 526.51 49.087 526.51 45.4811C526.51 41.8753 523.948 39.1357 520.035 39.1357C516.145 39.1357 513.536 41.8753 513.536 45.4811C513.536 49.087 516.145 51.8265 520.035 51.8265Z" fill="white" fill-opacity="0.8"/>
<path d="M527.638 51.4519H531.504V39.4636H527.638V51.4519ZM527.638 37.8012H531.504V34.7104H527.638V37.8012Z" fill="white" fill-opacity="0.8"/>
<path d="M533.182 55.4089H537.048V50.2108H537.096C537.855 51.2177 538.969 51.8265 540.535 51.8265C543.713 51.8265 545.824 49.3445 545.824 45.4577C545.824 41.8518 543.855 39.1123 540.63 39.1123C538.969 39.1123 537.784 39.8382 536.953 40.9152H536.882V39.4635H533.182V55.4089ZM539.539 48.8762C537.878 48.8762 536.93 47.5416 536.93 45.5982C536.93 43.6547 537.784 42.1796 539.467 42.1796C541.128 42.1796 541.91 43.5377 541.91 45.5982C541.91 47.6352 541.009 48.8762 539.539 48.8762Z" fill="white" fill-opacity="0.8"/>
<path d="M552.118 51.8264C555.296 51.8264 557.644 50.4684 557.644 47.846C557.644 44.7786 555.13 44.2401 552.995 43.8889C551.454 43.6079 550.078 43.4908 550.078 42.6479C550.078 41.8986 550.813 41.5474 551.762 41.5474C552.829 41.5474 553.565 41.8752 553.707 42.9523H557.265C557.075 40.5874 555.225 39.1123 551.786 39.1123C548.916 39.1123 546.544 40.4235 546.544 42.9523C546.544 45.7621 548.797 46.324 550.908 46.6752C552.521 46.9562 553.992 47.0733 553.992 48.1504C553.992 48.923 553.256 49.3445 552.094 49.3445C550.813 49.3445 550.007 48.7591 549.865 47.565H546.212C546.331 50.2108 548.56 51.8264 552.118 51.8264Z" fill="white" fill-opacity="0.8"/>
<path d="M562.896 51.8029C564.58 51.8029 565.647 51.1473 566.524 49.9765H566.596V51.4517H570.295V39.4634H566.43V46.16C566.43 47.5883 565.623 48.5717 564.295 48.5717C563.062 48.5717 562.469 47.8458 562.469 46.5346V39.4634H558.626V47.3307C558.626 50 560.097 51.8029 562.896 51.8029Z" fill="white" fill-opacity="0.8"/>
<path d="M571.976 51.4518H575.842V44.7318C575.842 43.3035 576.554 42.2967 577.764 42.2967C578.926 42.2967 579.471 43.046 579.471 44.3338V51.4518H583.337V44.7318C583.337 43.3035 584.025 42.2967 585.258 42.2967C586.42 42.2967 586.966 43.046 586.966 44.3338V51.4518H590.832V43.6547C590.832 40.9621 589.456 39.1123 586.705 39.1123C585.14 39.1123 583.835 39.7679 582.887 41.2196H582.839C582.222 39.9318 581.013 39.1123 579.424 39.1123C577.669 39.1123 576.507 39.9318 575.748 41.1728H575.676V39.4635H571.976V51.4518Z" fill="white" fill-opacity="0.8"/>
<path fill-rule="evenodd" clip-rule="evenodd" d="M443.441 63.1591C454.356 63.1591 463.205 54.4232 463.205 43.6469C463.205 32.8707 454.356 24.1348 443.441 24.1348C432.525 24.1348 423.676 32.8707 423.676 43.6469C423.676 54.4232 432.525 63.1591 443.441 63.1591ZM449.607 33.2244C449.907 32.1719 448.872 31.5495 447.927 32.2141L434.737 41.4904C433.713 42.2111 433.874 43.6469 434.98 43.6469H438.453V43.6204H445.222L439.706 45.5417L437.275 54.0696C436.975 55.1221 438.009 55.7444 438.954 55.0798L452.144 45.8035C453.169 45.0828 453.007 43.6469 451.902 43.6469H446.635L449.607 33.2244Z" fill="white" fill-opacity="0.8"/>
</g>
<rect x="724" width="419" height="88" rx="8" fill="white" fill-opacity="0.24"/>
<path d="M870.785 41.828C870.282 42.3364 869.896 42.95 869.656 43.6249C869.416 44.3 869.327 45.0199 869.396 45.7333L869.372 45.7093C869.442 46.5492 869.329 47.3943 869.041 48.1859C868.752 48.9773 868.295 49.6961 867.702 50.2921C867.108 50.888 866.392 51.3468 865.603 51.6361C864.814 51.9256 863.972 52.0389 863.135 51.968L863.159 51.992C862.158 51.8985 861.153 52.1171 860.28 52.618C859.408 53.1189 858.71 53.8777 858.283 54.7911C857.856 55.7044 857.72 56.7276 857.893 57.7215C858.067 58.7152 858.541 59.6311 859.253 60.3441C859.964 61.0572 860.877 61.5328 861.867 61.706C862.858 61.8793 863.877 61.7417 864.787 61.3123C865.696 60.8827 866.452 60.1821 866.95 59.3059C867.449 58.4296 867.665 57.4205 867.571 56.416L867.597 56.44C867.526 55.6003 867.639 54.7551 867.927 53.9635C868.216 53.172 868.673 52.4532 869.267 51.8572C869.86 51.2613 870.577 50.8025 871.365 50.5132C872.154 50.2237 872.996 50.1104 873.833 50.1813L873.808 50.1573C874.625 50.2311 875.448 50.0965 876.2 49.7661C876.952 49.4357 877.609 48.9201 878.11 48.2672C878.61 47.6143 878.939 46.8449 879.064 46.0308C879.19 45.2165 879.109 44.3837 878.828 43.6093C878.547 42.8351 878.077 42.1444 877.459 41.6013C876.842 41.0583 876.098 40.6804 875.296 40.5028C874.494 40.3252 873.661 40.3535 872.873 40.5851C872.085 40.8168 871.369 41.2443 870.789 41.828H870.785Z" fill="white" fill-opacity="0.8"/>
<path d="M860.984 48.8478L860.959 48.8238C861.67 48.8957 862.389 48.8081 863.062 48.5673C863.735 48.3265 864.347 47.9386 864.853 47.4316C865.358 46.9245 865.745 46.3109 865.986 45.6353C866.226 44.9597 866.314 44.239 866.243 43.5252L866.268 43.5492C866.197 42.7093 866.31 41.8642 866.599 41.0726C866.887 40.2812 867.344 39.5624 867.938 38.9664C868.532 38.3705 869.248 37.9117 870.037 37.6224C870.826 37.3328 871.668 37.2196 872.504 37.2905L872.479 37.2665C873.48 37.3609 874.486 37.143 875.359 36.6426C876.232 36.1423 876.93 35.3838 877.358 34.4706C877.786 33.5575 877.923 32.5341 877.75 31.5401C877.577 30.5461 877.102 29.6298 876.391 28.9163C875.68 28.2028 874.767 27.7268 873.777 27.5531C872.786 27.3795 871.767 27.5167 870.857 27.9461C869.947 28.3754 869.191 29.076 868.693 29.9523C868.194 30.8286 867.977 31.8379 868.071 32.8425L868.047 32.8172C868.118 33.657 868.005 34.5023 867.717 35.2939C867.429 36.0855 866.971 36.8044 866.378 37.4005C865.784 37.9964 865.067 38.4552 864.279 38.7445C863.49 39.0338 862.648 39.1469 861.811 39.0758L861.835 39.1012C861.123 39.0293 860.405 39.1169 859.732 39.3577C859.058 39.5984 858.447 39.9864 857.941 40.4934C857.436 41.0005 857.048 41.6141 856.808 42.2897C856.568 42.9653 856.48 43.686 856.551 44.3998L856.527 44.3758C856.597 45.2156 856.484 46.0606 856.196 46.8521C855.907 47.6434 855.45 48.3622 854.857 48.9581C854.263 49.554 853.547 50.0126 852.758 50.3022C851.969 50.5917 851.127 50.7052 850.291 50.6345L850.315 50.6585C849.314 50.5641 848.308 50.782 847.435 51.2824C846.562 51.7828 845.864 52.5412 845.436 53.4544C845.008 54.3676 844.871 55.3909 845.044 56.3849C845.217 57.3789 845.692 58.2952 846.402 59.0086C847.113 59.7222 848.026 60.1982 849.017 60.3718C850.007 60.5454 851.027 60.4082 851.937 59.9789C852.847 59.5496 853.603 58.849 854.101 57.9728C854.6 57.0964 854.817 56.0872 854.723 55.0825L854.748 55.1065C854.677 54.2666 854.79 53.4216 855.079 52.63C855.367 51.8385 855.824 51.1197 856.418 50.5237C857.012 49.9278 857.728 49.469 858.517 49.1797C859.305 48.8902 860.148 48.7769 860.984 48.8478Z" fill="white" fill-opacity="0.8"/>
<path d="M852.08 46.1721C852.584 45.6638 852.969 45.0502 853.209 44.3751C853.449 43.7001 853.538 42.9801 853.469 42.2667L853.494 42.2907C853.423 41.4507 853.536 40.6053 853.825 39.8135C854.113 39.0218 854.571 38.3029 855.165 37.7069C855.759 37.1109 856.475 36.6523 857.264 36.363C858.053 36.0737 858.896 35.9608 859.733 36.0321L859.708 36.0081C860.708 36.1022 861.714 35.8842 862.586 35.3839C863.459 34.8836 864.157 34.1253 864.584 33.2124C865.012 32.2995 865.149 31.2765 864.976 30.2829C864.803 29.2892 864.328 28.3733 863.618 27.6601C862.907 26.9468 861.994 26.4709 861.004 26.2973C860.014 26.1237 858.995 26.2608 858.085 26.6899C857.176 27.1189 856.42 27.8192 855.921 28.695C855.423 29.5709 855.206 30.5798 855.299 31.5841L855.276 31.5601C855.346 32.3999 855.233 33.245 854.945 34.0366C854.656 34.8281 854.199 35.5469 853.606 36.1428C853.012 36.7388 852.296 37.1975 851.507 37.4869C850.718 37.7763 849.876 37.8897 849.039 37.8187L849.063 37.8427C848.245 37.7691 847.423 37.9039 846.671 38.2345C845.919 38.565 845.262 39.0807 844.762 39.7338C844.261 40.3867 843.933 41.1561 843.808 41.9702C843.682 42.7845 843.764 43.6173 844.044 44.3914C844.325 45.1657 844.796 45.8562 845.413 46.3991C846.031 46.9422 846.775 47.3199 847.576 47.4975C848.378 47.675 849.211 47.6466 849.999 47.415C850.787 47.1833 851.504 46.7558 852.083 46.1721H852.08Z" fill="white" fill-opacity="0.8"/>
<path d="M893.235 32.8735H897.181V52.1442H893.235V32.8735Z" fill="white" fill-opacity="0.8"/>
<path d="M899.416 45.5455C899.411 44.1607 899.815 42.8052 900.577 41.6511C901.34 40.4969 902.427 39.5959 903.7 39.0621C904.973 38.5283 906.376 38.3857 907.73 38.6525C909.084 38.9193 910.329 39.5833 911.306 40.5607C912.284 41.5379 912.951 42.7844 913.222 44.1423C913.493 45.5001 913.357 46.9083 912.83 48.1883C912.303 49.4681 911.41 50.5625 910.263 51.3324C909.116 52.1024 907.767 52.5135 906.387 52.5135C905.471 52.524 904.562 52.3511 903.713 52.0049C902.865 51.6588 902.093 51.1464 901.444 50.4977C900.795 49.8489 900.282 49.0768 899.933 48.2265C899.585 47.3763 899.409 46.4648 899.416 45.5455ZM909.412 45.5455C909.396 44.9485 909.204 44.3697 908.862 43.8813C908.519 43.3931 908.041 43.0168 907.487 42.7999C906.932 42.5828 906.327 42.5345 905.745 42.6612C905.164 42.7879 904.632 43.0836 904.217 43.5117C903.803 43.9397 903.522 44.4811 903.413 45.068C903.303 45.6548 903.367 46.2612 903.599 46.8113C903.83 47.3615 904.218 47.8308 904.714 48.1608C905.21 48.4908 905.792 48.6668 906.387 48.6668C906.794 48.6777 907.2 48.6037 907.578 48.4496C907.955 48.2955 908.297 48.0645 908.581 47.7713C908.865 47.478 909.086 47.1288 909.229 46.7457C909.372 46.3627 909.434 45.954 909.412 45.5455Z" fill="white" fill-opacity="0.8"/>
<path d="M929.084 38.9452V51.4786C929.084 55.9132 925.638 57.7879 922.14 57.7879C920.908 57.8804 919.675 57.6307 918.575 57.0663C917.476 56.5018 916.552 55.6443 915.906 54.5879L919.273 52.6346C919.544 53.1852 919.977 53.6395 920.513 53.9367C921.049 54.2338 921.662 54.3596 922.271 54.2972C922.661 54.3514 923.057 54.317 923.431 54.1966C923.806 54.0762 924.148 53.8728 924.433 53.6018C924.719 53.3306 924.94 52.9986 925.08 52.63C925.22 52.2616 925.276 51.8663 925.243 51.4732V50.2666C924.781 50.8339 924.193 51.2847 923.526 51.5827C922.859 51.8807 922.132 52.0176 921.403 51.9826C919.667 51.9276 918.021 51.1972 916.813 49.9458C915.605 48.6944 914.929 47.0203 914.929 45.2779C914.929 43.5355 915.605 41.8614 916.813 40.61C918.021 39.3586 919.667 38.6282 921.403 38.5732C922.132 38.5382 922.859 38.6751 923.526 38.9731C924.193 39.2711 924.781 39.7219 925.243 40.2892V38.9426L929.084 38.9452ZM925.245 45.2799C925.271 44.6418 925.107 44.0102 924.773 43.4666C924.439 42.9228 923.95 42.492 923.37 42.2295C922.79 41.9668 922.144 41.8846 921.517 41.9931C920.89 42.1016 920.31 42.396 919.85 42.8386C919.391 43.281 919.075 43.8511 918.941 44.4756C918.808 45.1002 918.864 45.7506 919.102 46.343C919.34 46.9354 919.749 47.4428 920.277 47.7999C920.804 48.157 921.426 48.3474 922.063 48.3466C922.477 48.3756 922.893 48.3172 923.284 48.1751C923.675 48.033 924.032 47.8102 924.331 47.5214C924.631 47.2324 924.867 46.8838 925.025 46.4976C925.182 46.1116 925.257 45.6968 925.245 45.2799Z" fill="white" fill-opacity="0.8"/>
<path d="M931.319 45.5455C931.313 44.1607 931.717 42.8052 932.48 41.6511C933.243 40.4969 934.33 39.5959 935.603 39.0621C936.876 38.5283 938.279 38.3857 939.633 38.6525C940.987 38.9193 942.232 39.5833 943.209 40.5607C944.187 41.5379 944.854 42.7844 945.125 44.1423C945.396 45.5001 945.26 46.9083 944.733 48.1883C944.206 49.4681 943.313 50.5625 942.166 51.3324C941.019 52.1024 939.67 52.5135 938.29 52.5135C937.374 52.524 936.465 52.3511 935.616 52.0049C934.768 51.6588 933.996 51.1464 933.347 50.4977C932.698 49.8489 932.185 49.0768 931.836 48.2265C931.488 47.3763 931.312 46.4648 931.319 45.5455ZM941.315 45.5455C941.299 44.9485 941.107 44.3697 940.765 43.8813C940.422 43.3931 939.944 43.0168 939.39 42.7999C938.835 42.5828 938.229 42.5345 937.648 42.6612C937.067 42.7879 936.535 43.0836 936.12 43.5117C935.705 43.9397 935.425 44.4811 935.315 45.068C935.205 45.6548 935.27 46.2612 935.502 46.8113C935.733 47.3615 936.121 47.8308 936.617 48.1608C937.113 48.4908 937.695 48.6668 938.29 48.6668C938.697 48.6777 939.103 48.6037 939.48 48.4496C939.858 48.2955 940.2 48.0645 940.484 47.7713C940.768 47.478 940.989 47.1288 941.132 46.7457C941.275 46.3627 941.337 45.954 941.315 45.5455Z" fill="white" fill-opacity="0.8"/>
<path d="M947.101 35.4082C947.101 34.9383 947.24 34.4789 947.5 34.0882C947.76 33.6975 948.13 33.3929 948.563 33.2131C948.995 33.0333 949.471 32.9862 949.931 33.0779C950.39 33.1696 950.812 33.3959 951.143 33.7281C951.474 34.0604 951.699 34.4838 951.791 34.9447C951.882 35.4056 951.835 35.8833 951.656 36.3175C951.477 36.7516 951.173 37.1227 950.784 37.3838C950.395 37.6449 949.937 37.7842 949.469 37.7842C948.843 37.778 948.244 37.5257 947.801 37.0814C947.359 36.6372 947.107 36.0364 947.101 35.4082ZM947.5 38.9456H951.447V52.1456H947.494L947.5 38.9456Z" fill="white" fill-opacity="0.8"/>
<path d="M968.484 45.5455C968.53 46.4179 968.403 47.2907 968.112 48.1138C967.82 48.9369 967.369 49.6939 966.785 50.3415C966.201 50.989 965.494 51.5143 964.707 51.8871C963.92 52.2598 963.067 52.4727 962.198 52.5135C961.466 52.5535 960.735 52.4298 960.058 52.1513C959.38 51.8726 958.773 51.4462 958.28 50.9029V57.4242H954.334V38.9455H958.28V40.1855C958.773 39.6426 959.38 39.2165 960.058 38.9382C960.736 38.6598 961.466 38.5362 962.198 38.5762C963.067 38.6169 963.92 38.8297 964.708 39.2025C965.495 39.5753 966.201 40.1006 966.786 40.7483C967.37 41.3961 967.821 42.1534 968.112 42.9767C968.404 43.7999 968.53 44.673 968.484 45.5455ZM964.538 45.5455C964.523 44.9278 964.326 44.3283 963.973 43.8221C963.62 43.3159 963.126 42.9255 962.553 42.6999C961.979 42.4742 961.353 42.4231 960.751 42.5533C960.149 42.6833 959.598 42.9886 959.168 43.431C958.738 43.8735 958.448 44.4333 958.334 45.0406C958.219 45.6478 958.286 46.2753 958.525 46.8447C958.764 47.4142 959.166 47.9001 959.679 48.2418C960.192 48.5834 960.794 48.7657 961.41 48.7655C961.832 48.7845 962.254 48.7134 962.648 48.5571C963.041 48.401 963.398 48.163 963.693 47.859C963.988 47.5549 964.216 47.1917 964.362 46.793C964.508 46.3943 964.568 45.9691 964.538 45.5455Z" fill="white" fill-opacity="0.8"/>
<path d="M980.661 48.1841C980.661 51.2201 978.031 52.5135 975.191 52.5135C974.043 52.6177 972.891 52.3743 971.883 51.8141C970.874 51.2541 970.057 50.4035 969.535 49.3721L972.954 47.4188C973.092 47.8955 973.389 48.3103 973.795 48.5936C974.201 48.8771 974.693 49.0121 975.186 48.9761C976.132 48.9761 976.606 48.6855 976.606 48.1588C976.606 46.7055 970.134 47.4721 970.134 42.9055C970.134 40.0268 972.555 38.5761 975.291 38.5761C976.319 38.5435 977.337 38.7883 978.239 39.2849C979.141 39.7817 979.894 40.5121 980.419 41.4001L977.052 43.2215C976.905 42.8757 976.659 42.5812 976.346 42.3747C976.032 42.1681 975.665 42.0588 975.291 42.0601C974.606 42.0601 974.185 42.3268 974.185 42.7988C974.191 44.3041 980.661 43.3001 980.661 48.1841Z" fill="white" fill-opacity="0.8"/>
<path d="M995.074 38.9453V52.1453H991.129V50.904C990.673 51.4517 990.095 51.8833 989.441 52.1633C988.788 52.4433 988.078 52.5637 987.369 52.5146C984.712 52.5146 982.453 50.6146 982.453 47.048V38.9453H986.399V46.468C986.366 46.7824 986.402 47.1002 986.504 47.3993C986.605 47.6985 986.771 47.9718 986.989 48.2002C987.207 48.4286 987.471 48.6066 987.765 48.722C988.057 48.8373 988.372 48.8872 988.687 48.868C990.133 48.868 991.133 48.024 991.133 46.1493V38.9493L995.074 38.9453Z" fill="white" fill-opacity="0.8"/>
<path d="M1017.7 44.04V52.144H1013.75V44.3826C1013.75 43.0626 1013.12 42.2186 1011.86 42.2186C1010.55 42.2186 1009.81 43.1426 1009.81 44.7V52.144H1005.86V44.3826C1005.86 43.0626 1005.23 42.2186 1003.97 42.2186C1002.65 42.2186 1001.92 43.1426 1001.92 44.7V52.144H997.972V38.944H1001.92V40.1573C1002.33 39.619 1002.86 39.1921 1003.48 38.9157C1004.1 38.6392 1004.77 38.522 1005.44 38.5746C1006.12 38.5414 1006.79 38.6845 1007.39 38.9897C1008 39.2948 1008.51 39.7518 1008.89 40.316C1009.32 39.7257 1009.9 39.2564 1010.57 38.9518C1011.24 38.6473 1011.97 38.5176 1012.7 38.5746C1015.72 38.576 1017.7 40.74 1017.7 44.04Z" fill="white" fill-opacity="0.8"/>
<path d="M1021.04 38.8641C1022.65 38.8641 1023.97 37.5484 1023.97 35.9255C1023.97 34.3025 1022.65 32.9868 1021.04 32.9868C1019.42 32.9868 1018.11 34.3025 1018.11 35.9255C1018.11 37.5484 1019.42 38.8641 1021.04 38.8641Z" fill="white" fill-opacity="0.8"/>
<rect x="1151" width="419" height="88" rx="8" fill="white" fill-opacity="0.24"/>
<g clip-path="url(#clip1_1_2168)">
<path d="M1328.25 51.4519H1340.06V47.9397H1332.45V34.7104H1328.25V51.4519Z" fill="white" fill-opacity="0.8"/>
<path d="M1347.06 49.1104C1345.38 49.1104 1344.5 47.6587 1344.5 45.4811C1344.5 43.3035 1345.38 41.8284 1347.06 41.8284C1348.74 41.8284 1349.64 43.3035 1349.64 45.4811C1349.64 47.6587 1348.74 49.1104 1347.06 49.1104ZM1347.08 51.8265C1351 51.8265 1353.56 49.087 1353.56 45.4811C1353.56 41.8753 1351 39.1357 1347.08 39.1357C1343.19 39.1357 1340.58 41.8753 1340.58 45.4811C1340.58 49.087 1343.19 51.8265 1347.08 51.8265Z" fill="white" fill-opacity="0.8"/>
<path d="M1360.33 55.5962C1362.13 55.5962 1363.72 55.1982 1364.79 54.2616C1365.76 53.3952 1366.4 52.084 1366.4 50.2811V39.4635H1362.7V40.7513H1362.66C1361.94 39.7445 1360.85 39.1123 1359.24 39.1123C1356.23 39.1123 1354.14 41.5943 1354.14 45.1065C1354.14 48.7825 1356.68 50.7962 1359.41 50.7962C1360.88 50.7962 1361.8 50.2108 1362.51 49.4147H1362.61V50.6089C1362.61 52.0606 1361.92 52.9035 1360.28 52.9035C1359 52.9035 1358.36 52.365 1358.15 51.7328H1354.4C1354.78 54.2382 1356.99 55.5962 1360.33 55.5962ZM1360.31 47.963C1358.86 47.963 1357.91 46.7923 1357.91 44.9894C1357.91 43.163 1358.86 41.9923 1360.31 41.9923C1361.92 41.9923 1362.77 43.3504 1362.77 44.966C1362.77 46.6518 1361.99 47.963 1360.31 47.963Z" fill="white" fill-opacity="0.8"/>
<path d="M1374.01 49.1104C1372.33 49.1104 1371.45 47.6587 1371.45 45.4811C1371.45 43.3035 1372.33 41.8284 1374.01 41.8284C1375.7 41.8284 1376.6 43.3035 1376.6 45.4811C1376.6 47.6587 1375.7 49.1104 1374.01 49.1104ZM1374.03 51.8265C1377.95 51.8265 1380.51 49.087 1380.51 45.4811C1380.51 41.8753 1377.95 39.1357 1374.03 39.1357C1370.15 39.1357 1367.54 41.8753 1367.54 45.4811C1367.54 49.087 1370.15 51.8265 1374.03 51.8265Z" fill="white" fill-opacity="0.8"/>
<path d="M1381.64 51.4519H1385.5V39.4636H1381.64V51.4519ZM1381.64 37.8012H1385.5V34.7104H1381.64V37.8012Z" fill="white" fill-opacity="0.8"/>
<path d="M1387.18 55.4089H1391.05V50.2108H1391.1C1391.85 51.2177 1392.97 51.8265 1394.53 51.8265C1397.71 51.8265 1399.82 49.3445 1399.82 45.4577C1399.82 41.8518 1397.86 39.1123 1394.63 39.1123C1392.97 39.1123 1391.78 39.8382 1390.95 40.9152H1390.88V39.4635H1387.18V55.4089ZM1393.54 48.8762C1391.88 48.8762 1390.93 47.5416 1390.93 45.5982C1390.93 43.6547 1391.78 42.1796 1393.47 42.1796C1395.13 42.1796 1395.91 43.5377 1395.91 45.5982C1395.91 47.6352 1395.01 48.8762 1393.54 48.8762Z" fill="white" fill-opacity="0.8"/>
<path d="M1406.12 51.8264C1409.3 51.8264 1411.64 50.4684 1411.64 47.846C1411.64 44.7786 1409.13 44.2401 1407 43.8889C1405.45 43.6079 1404.08 43.4908 1404.08 42.6479C1404.08 41.8986 1404.81 41.5474 1405.76 41.5474C1406.83 41.5474 1407.56 41.8752 1407.71 42.9523H1411.26C1411.07 40.5874 1409.22 39.1123 1405.79 39.1123C1402.92 39.1123 1400.54 40.4235 1400.54 42.9523C1400.54 45.7621 1402.8 46.324 1404.91 46.6752C1406.52 46.9562 1407.99 47.0733 1407.99 48.1504C1407.99 48.923 1407.26 49.3445 1406.09 49.3445C1404.81 49.3445 1404.01 48.7591 1403.86 47.565H1400.21C1400.33 50.2108 1402.56 51.8264 1406.12 51.8264Z" fill="white" fill-opacity="0.8"/>
<path d="M1416.9 51.8029C1418.58 51.8029 1419.65 51.1473 1420.52 49.9765H1420.6V51.4517H1424.3V39.4634H1420.43V46.16C1420.43 47.5883 1419.62 48.5717 1418.29 48.5717C1417.06 48.5717 1416.47 47.8458 1416.47 46.5346V39.4634H1412.63V47.3307C1412.63 50 1414.1 51.8029 1416.9 51.8029Z" fill="white" fill-opacity="0.8"/>
<path d="M1425.98 51.4518H1429.84V44.7318C1429.84 43.3035 1430.55 42.2967 1431.76 42.2967C1432.93 42.2967 1433.47 43.046 1433.47 44.3338V51.4518H1437.34V44.7318C1437.34 43.3035 1438.03 42.2967 1439.26 42.2967C1440.42 42.2967 1440.97 43.046 1440.97 44.3338V51.4518H1444.83V43.6547C1444.83 40.9621 1443.46 39.1123 1440.71 39.1123C1439.14 39.1123 1437.84 39.7679 1436.89 41.2196H1436.84C1436.22 39.9318 1435.01 39.1123 1433.42 39.1123C1431.67 39.1123 1430.51 39.9318 1429.75 41.1728H1429.68V39.4635H1425.98V51.4518Z" fill="white" fill-opacity="0.8"/>
<path fill-rule="evenodd" clip-rule="evenodd" d="M1297.44 63.1591C1308.36 63.1591 1317.21 54.4232 1317.21 43.6469C1317.21 32.8707 1308.36 24.1348 1297.44 24.1348C1286.52 24.1348 1277.68 32.8707 1277.68 43.6469C1277.68 54.4232 1286.52 63.1591 1297.44 63.1591ZM1303.61 33.2244C1303.91 32.1719 1302.87 31.5495 1301.93 32.2141L1288.74 41.4904C1287.71 42.2111 1287.87 43.6469 1288.98 43.6469H1292.45V43.6204H1299.22L1293.71 45.5417L1291.27 54.0696C1290.97 55.1221 1292.01 55.7444 1292.95 55.0798L1306.14 45.8035C1307.17 45.0828 1307.01 43.6469 1305.9 43.6469H1300.63L1303.61 33.2244Z" fill="white" fill-opacity="0.8"/>
</g>
<defs>
<clipPath id="clip0_1_2168">
<rect width="168" height="40" fill="white" transform="translate(423 24)"/>
</clipPath>
<clipPath id="clip1_1_2168">
<rect width="168" height="40" fill="white" transform="translate(1277 24)"/>
</clipPath>
</defs>
</svg>
