<svg width="129" height="56" viewBox="0 0 129 56" fill="none" xmlns="http://www.w3.org/2000/svg">
<rect x="0.5" y="0.5" width="128" height="55" rx="27.5" stroke="#022C22"/>
<path d="M29.67 34.216C28.998 34.216 28.386 34.138 27.834 33.982C27.294 33.826 26.82 33.616 26.412 33.352C26.016 33.076 25.686 32.77 25.422 32.434C25.158 32.098 24.972 31.744 24.864 31.372L26.574 30.814C26.754 31.306 27.096 31.732 27.6 32.092C28.104 32.452 28.722 32.638 29.454 32.65C30.342 32.65 31.038 32.476 31.542 32.128C32.058 31.768 32.316 31.294 32.316 30.706C32.316 30.166 32.094 29.728 31.65 29.392C31.206 29.044 30.618 28.78 29.886 28.6L28.428 28.222C27.852 28.066 27.324 27.844 26.844 27.556C26.376 27.268 26.004 26.902 25.728 26.458C25.452 26.014 25.314 25.48 25.314 24.856C25.314 23.704 25.686 22.804 26.43 22.156C27.186 21.508 28.272 21.184 29.688 21.184C30.504 21.184 31.212 21.316 31.812 21.58C32.412 21.832 32.904 22.168 33.288 22.588C33.684 23.008 33.966 23.47 34.134 23.974L32.424 24.55C32.22 24.01 31.872 23.578 31.38 23.254C30.888 22.918 30.282 22.75 29.562 22.75C28.806 22.75 28.206 22.93 27.762 23.29C27.33 23.65 27.114 24.142 27.114 24.766C27.114 25.294 27.282 25.702 27.618 25.99C27.966 26.266 28.428 26.476 29.004 26.62L30.462 26.98C31.638 27.268 32.544 27.748 33.18 28.42C33.828 29.08 34.152 29.806 34.152 30.598C34.152 31.282 33.978 31.9 33.63 32.452C33.294 32.992 32.79 33.424 32.118 33.748C31.458 34.06 30.642 34.216 29.67 34.216ZM40.1155 34.216C39.2395 34.216 38.4655 34.018 37.7935 33.622C37.1215 33.214 36.5935 32.656 36.2095 31.948C35.8255 31.24 35.6335 30.424 35.6335 29.5C35.6335 28.576 35.8255 27.76 36.2095 27.052C36.5935 26.344 37.1215 25.792 37.7935 25.396C38.4775 24.988 39.2575 24.784 40.1335 24.784C40.9615 24.784 41.6875 24.994 42.3115 25.414C42.9355 25.822 43.4215 26.41 43.7695 27.178C44.1295 27.934 44.3095 28.828 44.3095 29.86H37.0375L37.3615 29.59C37.3615 30.226 37.4875 30.778 37.7395 31.246C37.9915 31.714 38.3335 32.074 38.7655 32.326C39.1975 32.566 39.6895 32.686 40.2415 32.686C40.8415 32.686 41.3395 32.548 41.7355 32.272C42.1435 31.984 42.4615 31.624 42.6895 31.192L44.1655 31.876C43.9255 32.344 43.6135 32.758 43.2295 33.118C42.8455 33.466 42.3895 33.736 41.8615 33.928C41.3455 34.12 40.7635 34.216 40.1155 34.216ZM37.4695 28.78L37.1275 28.51H42.8155L42.4915 28.78C42.4915 28.252 42.3835 27.802 42.1675 27.43C41.9515 27.046 41.6635 26.758 41.3035 26.566C40.9435 26.362 40.5415 26.26 40.0975 26.26C39.6655 26.26 39.2455 26.362 38.8375 26.566C38.4415 26.758 38.1115 27.04 37.8475 27.412C37.5955 27.784 37.4695 28.24 37.4695 28.78ZM49.9048 34.216C49.0288 34.216 48.2548 34.018 47.5828 33.622C46.9108 33.214 46.3828 32.656 45.9988 31.948C45.6148 31.24 45.4228 30.424 45.4228 29.5C45.4228 28.576 45.6148 27.76 45.9988 27.052C46.3828 26.344 46.9108 25.792 47.5828 25.396C48.2668 24.988 49.0468 24.784 49.9228 24.784C50.7508 24.784 51.4768 24.994 52.1008 25.414C52.7248 25.822 53.2108 26.41 53.5588 27.178C53.9188 27.934 54.0988 28.828 54.0988 29.86H46.8268L47.1508 29.59C47.1508 30.226 47.2768 30.778 47.5288 31.246C47.7808 31.714 48.1228 32.074 48.5548 32.326C48.9868 32.566 49.4788 32.686 50.0308 32.686C50.6308 32.686 51.1288 32.548 51.5248 32.272C51.9328 31.984 52.2508 31.624 52.4788 31.192L53.9548 31.876C53.7148 32.344 53.4028 32.758 53.0188 33.118C52.6348 33.466 52.1788 33.736 51.6508 33.928C51.1348 34.12 50.5528 34.216 49.9048 34.216ZM47.2588 28.78L46.9168 28.51H52.6048L52.2808 28.78C52.2808 28.252 52.1728 27.802 51.9568 27.43C51.7408 27.046 51.4528 26.758 51.0928 26.566C50.7328 26.362 50.3308 26.26 49.8868 26.26C49.4548 26.26 49.0348 26.362 48.6268 26.566C48.2308 26.758 47.9008 27.04 47.6368 27.412C47.3848 27.784 47.2588 28.24 47.2588 28.78ZM65.5647 34L65.4927 32.434V29.302C65.4927 28.642 65.4147 28.09 65.2587 27.646C65.1147 27.202 64.8867 26.866 64.5747 26.638C64.2747 26.41 63.8727 26.296 63.3687 26.296C62.9007 26.296 62.4927 26.392 62.1447 26.584C61.8087 26.776 61.5267 27.076 61.2987 27.484L59.7867 26.908C60.0027 26.5 60.2727 26.14 60.5967 25.828C60.9207 25.504 61.3107 25.252 61.7667 25.072C62.2227 24.88 62.7567 24.784 63.3687 24.784C64.2207 24.784 64.9287 24.952 65.4927 25.288C66.0567 25.624 66.4767 26.11 66.7527 26.746C67.0407 27.382 67.1787 28.168 67.1667 29.104L67.1487 34H65.5647ZM62.9187 34.216C61.8507 34.216 61.0167 33.976 60.4167 33.496C59.8287 33.004 59.5347 32.326 59.5347 31.462C59.5347 30.538 59.8407 29.836 60.4527 29.356C61.0767 28.864 61.9407 28.618 63.0447 28.618H65.5467V29.968H63.5127C62.6847 29.968 62.1027 30.1 61.7667 30.364C61.4307 30.616 61.2627 30.97 61.2627 31.426C61.2627 31.846 61.4187 32.176 61.7307 32.416C62.0547 32.644 62.4987 32.758 63.0627 32.758C63.5547 32.758 63.9807 32.656 64.3407 32.452C64.7007 32.236 64.9827 31.936 65.1867 31.552C65.3907 31.168 65.4927 30.73 65.4927 30.238H66.0867C66.0867 31.462 65.8227 32.434 65.2947 33.154C64.7787 33.862 63.9867 34.216 62.9187 34.216ZM69.2479 34V21.4H70.9579V34H69.2479ZM73.254 34V21.4H74.964V34H73.254Z" fill="#1D1F1E"/>
<path d="M79.75 28H90.25" stroke="#1D1F1E" stroke-width="1.5" stroke-linecap="round" stroke-linejoin="round"/>
<path d="M85 22.75L90.25 28L85 33.25" stroke="#1D1F1E" stroke-width="1.5" stroke-linecap="round" stroke-linejoin="round"/>
</svg>
